<svg xmlns="http://www.w3.org/2000/svg" xmlns:oryx="http://oryx-editor.org" id="_50F6773B-F1D8-4BFE-BB7F-A4D5A0B3A1A5" width="698" height="264.65625" xmlns:xlink="http://www.w3.org/1999/xlink" xmlns:svg="http://www.w3.org/2000/svg"><defs><marker id="_AA779A34-58DD-4F48-A32B-9A460D8E8DAAstart" refX="1" refY="5" markerUnits="userSpaceOnUse" markerWidth="17" markerHeight="11" orient="auto" fill="#000000" stroke="#000000"> 	  		<path id="_AA779A34-58DD-4F48-A32B-9A460D8E8DAAconditional" d="M 0 5 L 8 0 L 16 5 L 8 10 L 0 5" fill="white" stroke="#000000" stroke-width="1" display="none"/> 			<path id="_AA779A34-58DD-4F48-A32B-9A460D8E8DAAdefault" d="M 5 0 L 11 10" fill="white" stroke="#000000" stroke-width="1" display="none"/> 	  	</marker><marker id="_AA779A34-58DD-4F48-A32B-9A460D8E8DAAend" refX="15" refY="6" markerUnits="userSpaceOnUse" markerWidth="15" markerHeight="12" orient="auto" fill="#000000" stroke="#000000"> 	  		<path id="_AA779A34-58DD-4F48-A32B-9A460D8E8DAAframe2" d="M 0 1 L 15 6 L 0 11z" fill="#000000" stroke="#000000" stroke-linejoin="round" stroke-width="2"/> 	  	</marker><marker id="_FC8FA4B0-261A-4CA0-8ECD-D103E435BB48start" refX="1" refY="5" markerUnits="userSpaceOnUse" markerWidth="17" markerHeight="11" orient="auto" fill="#000000" stroke="#000000"> 	  		<path id="_FC8FA4B0-261A-4CA0-8ECD-D103E435BB48conditional" d="M 0 5 L 8 0 L 16 5 L 8 10 L 0 5" fill="white" stroke="#000000" stroke-width="1" display="none"/> 			<path id="_FC8FA4B0-261A-4CA0-8ECD-D103E435BB48default" d="M 5 0 L 11 10" fill="white" stroke="#000000" stroke-width="1" display="none"/> 	  	</marker><marker id="_FC8FA4B0-261A-4CA0-8ECD-D103E435BB48end" refX="15" refY="6" markerUnits="userSpaceOnUse" markerWidth="15" markerHeight="12" orient="auto" fill="#000000" stroke="#000000"> 	  		<path id="_FC8FA4B0-261A-4CA0-8ECD-D103E435BB48frame2" d="M 0 1 L 15 6 L 0 11z" fill="#000000" stroke="#000000" stroke-linejoin="round" stroke-width="2"/> 	  	</marker><marker id="_B616B248-501E-49E9-BE47-677522F5A1D1start" refX="1" refY="5" markerUnits="userSpaceOnUse" markerWidth="17" markerHeight="11" orient="auto" fill="#000000" stroke="#000000"> 	  		<path id="_B616B248-501E-49E9-BE47-677522F5A1D1conditional" d="M 0 5 L 8 0 L 16 5 L 8 10 L 0 5" fill="white" stroke="#000000" stroke-width="1" display="none"/> 			<path id="_B616B248-501E-49E9-BE47-677522F5A1D1default" d="M 5 0 L 11 10" fill="white" stroke="#000000" stroke-width="1" display="none"/> 	  	</marker><marker id="_B616B248-501E-49E9-BE47-677522F5A1D1end" refX="15" refY="6" markerUnits="userSpaceOnUse" markerWidth="15" markerHeight="12" orient="auto" fill="#000000" stroke="#000000"> 	  		<path id="_B616B248-501E-49E9-BE47-677522F5A1D1frame2" d="M 0 1 L 15 6 L 0 11z" fill="#000000" stroke="#000000" stroke-linejoin="round" stroke-width="2"/> 	  	</marker><marker id="_280B3972-B343-4662-920C-A8BB3AC6D0CDstart" refX="1" refY="5" markerUnits="userSpaceOnUse" markerWidth="17" markerHeight="11" orient="auto" fill="#000000" stroke="#000000"> 	  		<path id="_280B3972-B343-4662-920C-A8BB3AC6D0CDconditional" d="M 0 5 L 8 0 L 16 5 L 8 10 L 0 5" fill="white" stroke="#000000" stroke-width="1" display="none"/> 			<path id="_280B3972-B343-4662-920C-A8BB3AC6D0CDdefault" d="M 5 0 L 11 10" fill="white" stroke="#000000" stroke-width="1" display="none"/> 	  	</marker><marker id="_280B3972-B343-4662-920C-A8BB3AC6D0CDend" refX="15" refY="6" markerUnits="userSpaceOnUse" markerWidth="15" markerHeight="12" orient="auto" fill="#000000" stroke="#000000"> 	  		<path id="_280B3972-B343-4662-920C-A8BB3AC6D0CDframe2" d="M 0 1 L 15 6 L 0 11z" fill="#000000" stroke="#000000" stroke-linejoin="round" stroke-width="2"/> 	  	</marker></defs><g stroke="none" font-family="Verdana, sans-serif" font-size-adjust="none" font-style="normal" font-variant="normal" font-weight="normal" line-heigth="normal" font-size="12"><g class="stencils" transform="translate(15, 15.65625)"><g class="me"/><g class="children"><g id="_B7E17267-0A7D-4F21-ACB4-B3A98D12457A" bpmn2nodeid="processStartEvent"><g class="stencils" transform="translate(120, 165)"><g class="me"><g pointer-events="fill" id="_B7E17267-0A7D-4F21-ACB4-B3A98D12457A">        <defs id="_B7E17267-0A7D-4F21-ACB4-B3A98D12457A__B7E17267-0A7D-4F21-ACB4-B3A98D12457A_5"> 		<radialGradient id="_B7E17267-0A7D-4F21-ACB4-B3A98D12457Abackground" cx="10%" cy="10%" r="100%" fx="10%" fy="10%"> 			<stop offset="0%" stop-color="#ffffff" stop-opacity="1" id="_B7E17267-0A7D-4F21-ACB4-B3A98D12457A__B7E17267-0A7D-4F21-ACB4-B3A98D12457A_6"/> 			<stop id="_B7E17267-0A7D-4F21-ACB4-B3A98D12457Afill_el" offset="100%" stop-color="#9acd32" stop-opacity="1"/> 		</radialGradient> 	</defs> 	     <circle id="_B7E17267-0A7D-4F21-ACB4-B3A98D12457Abg_frame" cx="15" cy="15" r="15" stroke="#000000" fill="url(#_B7E17267-0A7D-4F21-ACB4-B3A98D12457Abackground) white" stroke-width="1" style="stroke-dasharray: 5.5, 3"/>      <circle id="_B7E17267-0A7D-4F21-ACB4-B3A98D12457Aframe" cx="15" cy="15" r="15" stroke="#000000" fill="none" stroke-width="1" display="inherit"/>  	<text font-size="11" id="_B7E17267-0A7D-4F21-ACB4-B3A98D12457Atext_name" x="15" y="32" oryx:align="top center" stroke="black" stroke-width="0pt" letter-spacing="-0.01px" fill="#000000" text-anchor="middle" transform="rotate(0 15 32)" visibility="inherit" oryx:fontSize="11"/>   </g></g><g class="children" style="overflow:hidden"/><g class="edge"/></g><g class="controls"><g class="dockers"/><g class="magnets" transform="translate(120, 165)"><g pointer-events="all" display="none" transform="translate(7, 7)"><circle cx="8" cy="8" r="4" stroke="none" fill="red" fill-opacity="0.3"/></g></g></g></g><g id="_1CE7FCC1-4034-4108-9473-8EC6F002E743" bpmn2nodeid="_38D3619C-F291-4A4C-B6E3-D81B579DDA6F"><g class="stencils" transform="translate(195, 140)"><g class="me"><g pointer-events="fill" oryx:minimumSize="50 40" id="_1CE7FCC1-4034-4108-9473-8EC6F002E743">   	<defs id="_1CE7FCC1-4034-4108-9473-8EC6F002E743__1CE7FCC1-4034-4108-9473-8EC6F002E743_17"> 		<radialGradient id="_1CE7FCC1-4034-4108-9473-8EC6F002E743background" cx="10%" cy="10%" r="100%" fx="10%" fy="10%"> 			<stop offset="0%" stop-color="#ffffff" stop-opacity="1" id="_1CE7FCC1-4034-4108-9473-8EC6F002E743__1CE7FCC1-4034-4108-9473-8EC6F002E743_18"/> 			<stop id="_1CE7FCC1-4034-4108-9473-8EC6F002E743fill_el" offset="100%" stop-color="#fafad2" stop-opacity="1"/> 		</radialGradient> 		<radialGradient id="_1CE7FCC1-4034-4108-9473-8EC6F002E743borderbackground" cx="10%" cy="10%" r="100%" fx="10%" fy="10%"> 			<stop offset="0%" stop-color="#ffffff" stop-opacity="1" id="_1CE7FCC1-4034-4108-9473-8EC6F002E743__1CE7FCC1-4034-4108-9473-8EC6F002E743_19"/> 			<stop id="_1CE7FCC1-4034-4108-9473-8EC6F002E743fill_border" offset="100%" stop-color="#000000" stop-opacity="1" stroke="#000000"/> 		</radialGradient> 	</defs> 	 	<rect id="_1CE7FCC1-4034-4108-9473-8EC6F002E743text_frame" oryx:anchors="bottom top right left" x="1" y="1" width="94" height="79" rx="10" ry="10" stroke="none" stroke-width="0" fill="none"/> 	<rect id="_1CE7FCC1-4034-4108-9473-8EC6F002E743bg_frame" oryx:resize="vertical horizontal" x="0" y="0" width="100" height="80" rx="10" ry="10" stroke="#000000" stroke-width="1" fill="url(#_1CE7FCC1-4034-4108-9473-8EC6F002E743background) #ffffcc"/> 		<text font-size="12" id="_1CE7FCC1-4034-4108-9473-8EC6F002E743text_name" x="50" y="40" oryx:align="middle center" oryx:fittoelem="text_frame" stroke="black" text-anchor="middle" stroke-width="0pt" letter-spacing="-0.01px" fill="#000000" transform="rotate(0 50 40)" visibility="inherit" oryx:fontSize="12"><tspan x="50" y="40" dy="5">sysout1</tspan></text>     <g id="_1CE7FCC1-4034-4108-9473-8EC6F002E743manualTask" transform="scale(0.7,0.7) translate(8,8)" display="none">     	<path oryx:anchors="top left" id="_1CE7FCC1-4034-4108-9473-8EC6F002E743frame" style="opacity:1;fill:none;fill-opacity:1;stroke-width:1" d="M0.5,3.751l4.083-3.25c0,0,11.166,0.083,12.083,0.083s-2.417,2.917-1.5,2.917     s11.667,0,12.584,0c1.166,1.708-0.168,3.167-0.834,3.667s0.875,1.917-1,4.417c-0.75,0.25,0.75,1.875-1.333,3.333     c-1.167,0.583,0.583,1.542-1.25,2.833c-1.167,0-20.833,0.083-20.833,0.083l-2-1.333V3.751z" stroke="#000000"/> 		<path id="_1CE7FCC1-4034-4108-9473-8EC6F002E743frame2" oryx:anchors="top left" style="opacity:1;fill:none;stroke-width:2" d="M 13.5 7 L 27 7" stroke="#000000"/> 		<path id="_1CE7FCC1-4034-4108-9473-8EC6F002E743frame3" oryx:anchors="top left" style="opacity:1;fill:none;stroke-width:2" d="M 13.5 11 L 26 11" stroke="#000000"/> 		<path id="_1CE7FCC1-4034-4108-9473-8EC6F002E743frame4" oryx:anchors="top left" style="opacity:1;fill:none;stroke-width:1.5" d="M 14 14.5 L 25 14.5" stroke="#000000"/> 		<path id="_1CE7FCC1-4034-4108-9473-8EC6F002E743frame5" oryx:anchors="top left" style="opacity:1;fill:none;stroke-width:1.5" d="M 8.2 3.1 L 15 3.1" stroke="#000000"/> 	</g> 	 	<g id="_1CE7FCC1-4034-4108-9473-8EC6F002E743businessRuleTask" transform="scale(0.7,0.7) translate(8,8)" display="none"> 		<rect id="_1CE7FCC1-4034-4108-9473-8EC6F002E743frame6" oryx:anchors="top left" x="0" y="0" width="22" height="4" style="opacity:1;fill:#B3B1B3;fill-opacity:1;" stroke="#000000"/> 		<rect id="_1CE7FCC1-4034-4108-9473-8EC6F002E743frame7" oryx:anchors="top left" x="0" y="4" style="opacity:1;fill:none;" width="22" height="12" stroke="#000000"/> 		<path id="_1CE7FCC1-4034-4108-9473-8EC6F002E743frame8" oryx:anchors="top left" style="opacity:1;fill:none;" d="M 0 10 L 22 10" stroke="#000000"/> 		<path id="_1CE7FCC1-4034-4108-9473-8EC6F002E743frame9" oryx:anchors="top left" style="opacity:1; fill:none;" d="M 7 4 L 7 16" stroke="#000000"/> 	</g> 	 	<g id="_1CE7FCC1-4034-4108-9473-8EC6F002E743scriptTask" transform="scale(0.7,0.7) translate(8,8)" display="inherit"> 		<path oryx:anchors="top left" id="_1CE7FCC1-4034-4108-9473-8EC6F002E743frame10" style="opacity:1;fill:none;" stroke="#000000" d="M6.402,0.5h14.5c0,0-5.833,2.833-5.833,5.583s4.417,6,4.417,9.167    s-4.167,5.083-4.167,5.083H0.235c0,0,5-2.667,5-5s-4.583-6.75-4.583-9.25S6.402,0.5,6.402,0.5z"/> 		<path oryx:anchors="top left" id="_1CE7FCC1-4034-4108-9473-8EC6F002E743frame11" style="opacity:1;fill:none;stroke-width:1.5" d="M 3.5 4.5 L 13.5 4.5" stroke="#000000"/> 		<path oryx:anchors="top left" id="_1CE7FCC1-4034-4108-9473-8EC6F002E743frame12" style="opacity:1;fill:none;stroke-width:1.5" d="M 3.8 8.5 L 13.8 8.5" stroke="#000000"/> 		<path oryx:anchors="top left" id="_1CE7FCC1-4034-4108-9473-8EC6F002E743frame13" style="opacity:1;fill:none;stroke-width:1.5" d="M 6.3 12.5 L 16.3 12.5" stroke="#000000"/> 		<path oryx:anchors="top left" id="_1CE7FCC1-4034-4108-9473-8EC6F002E743frame14" style="opacity:1;fill:none;stroke-width:1.5" d="M 6.5 16.5 L 16.5 16.5" stroke="#000000"/> 	</g> 	 	<g id="_1CE7FCC1-4034-4108-9473-8EC6F002E743userTask" transform="scale(0.7,0.7) translate(8,8)" display="none"> 		<path id="_1CE7FCC1-4034-4108-9473-8EC6F002E743frame15" oryx:anchors="top left" style="opacity:1;fill:#F4F6F7" stroke="#000000" d="M0.585,24.167h24.083v-7.833c0,0-2.333-3.917-7.083-5.167h-9.25    c-4.417,1.333-7.833,5.75-7.833,5.75L0.585,24.167z"/> 		<path id="_1CE7FCC1-4034-4108-9473-8EC6F002E743frame16" oryx:anchors="top left" style="opacity:1;fill:none" d="M 6 20 L 6 24" stroke="#000000"/> 		<path id="_1CE7FCC1-4034-4108-9473-8EC6F002E743frame17" oryx:anchors="top left" style="opacity:1;fill:none" d="M 20 20 L 20 24" stroke="#000000"/> 		<circle id="_1CE7FCC1-4034-4108-9473-8EC6F002E743frame18" oryx:anchors="top left" fill="black" cx="13.002" cy="5.916" r="5.417" stroke="#000000"/> 		<path id="_1CE7FCC1-4034-4108-9473-8EC6F002E743frame19" oryx:anchors="top left" style="opacity:1;fill:#F0EFF0;" stroke="#000000" d="M8.043,7.083c0,0,2.814-2.426,5.376-1.807s4.624-0.693,4.624-0.693    c0.25,1.688,0.042,3.75-1.458,5.584c0,0,1.083,0.75,1.083,1.5s0.125,1.875-1,3s-5.5,1.25-6.75,0S8.668,12.834,8.668,12    s0.583-1.25,1.25-1.917C8.835,9.5,7.419,7.708,8.043,7.083z"/> 	</g> 	 	<g id="_1CE7FCC1-4034-4108-9473-8EC6F002E743serviceTask" transform="scale(0.7,0.7) translate(8,8)" display="none"> 		<polygon oryx:anchors="top left" id="_1CE7FCC1-4034-4108-9473-8EC6F002E743frame20" style="opacity:1;fill:#ffffff" stroke="#000000" points="15.392,5.064 17.954,2.502 20.347,4.895 17.786,7.455     18.729,9.732 22.353,9.732 22.353,13.115 18.731,13.115 17.788,15.392 20.351,17.955 17.958,20.347 15.397,17.786 13.12,18.729     13.12,22.353 9.737,22.353 9.737,18.731 7.46,17.788 4.897,20.35 2.506,17.958 5.066,15.397 4.124,13.12 0.5,13.12 0.5,9.737     4.121,9.737 5.065,7.461 2.503,4.898 4.895,2.506 7.455,5.066 9.732,4.125 9.732,0.5 13.116,0.5 13.116,4.121 "/> 		<circle oryx:anchors="top left" id="_1CE7FCC1-4034-4108-9473-8EC6F002E743frame21" style="opacity:1;fill:none" stroke="#000000" cx="11.427" cy="11.426" r="3.714"/> 		<polygon oryx:anchors="top left" id="_1CE7FCC1-4034-4108-9473-8EC6F002E743frame22" style="opacity:1;fill:#ffffff" stroke="#000000" points="21.392,11.064 23.954,8.502 26.347,10.895 23.786,13.455     24.729,15.732 28.353,15.732 28.353,19.115 24.731,19.115 23.788,21.392 26.351,23.955 23.958,26.347 21.397,23.786 19.12,24.729     19.12,28.353 15.737,28.353 15.737,24.731 13.46,23.788 10.897,26.35 8.506,23.958 11.066,21.397 10.124,19.12 6.5,19.12     6.5,15.737 10.121,15.737 11.065,13.461 8.503,10.898 10.895,8.506 13.455,11.066 15.732,10.125 15.732,6.5 19.116,6.5     19.116,10.121 "/> 		<circle oryx:anchors="top left" id="_1CE7FCC1-4034-4108-9473-8EC6F002E743frame23" style="opacity:1;fill:none;" stroke="#000000" cx="17.427" cy="17.426" r="3.714"/> 	</g> 	 	<g id="_1CE7FCC1-4034-4108-9473-8EC6F002E743sendTask" display="none"> 		<path id="_1CE7FCC1-4034-4108-9473-8EC6F002E743stframe24" oryx:anchors="left top" stroke="#FFFFFF" fill="black" stroke-width="1" d="M8,11 L8,21 L24,21 L24,11 L16,17z"/> 		<path id="_1CE7FCC1-4034-4108-9473-8EC6F002E743stframe25" oryx:anchors="left top" stroke="#FFFFFF" fill="black" stroke-width="1" d="M7,10 L16,17 L25 10z"/> 	</g> 	 	<g id="_1CE7FCC1-4034-4108-9473-8EC6F002E743receiveTask" display="none"> 		<path id="_1CE7FCC1-4034-4108-9473-8EC6F002E743frame26" oryx:anchors="left top" stroke="#000000" fill="none" stroke-width="1" d="M8,11 L8,21 L24,21 L24,11z M8,11 L16,17 L24,11"/> 	</g> 	 	<g id="_1CE7FCC1-4034-4108-9473-8EC6F002E743none" display="inherit"/>  	<g id="_1CE7FCC1-4034-4108-9473-8EC6F002E743sequential" display="none">         <path oryx:anchors="bottom" fill="none" stroke="#000000" stroke-width="2" d="M46,76h10M46,72h10 M46,68h10" id="_1CE7FCC1-4034-4108-9473-8EC6F002E743__1CE7FCC1-4034-4108-9473-8EC6F002E743_20"/>     </g>   </g></g><g class="children" style="overflow:hidden"/><g class="edge"/></g><g class="controls"><g class="dockers"/><g class="magnets" transform="translate(195, 140)"><g pointer-events="all" display="none" transform="translate(-7, 12)"><circle cx="8" cy="8" r="4" stroke="none" fill="red" fill-opacity="0.3"/></g><g pointer-events="all" display="none" transform="translate(-7, 32)"><circle cx="8" cy="8" r="4" stroke="none" fill="red" fill-opacity="0.3"/></g><g pointer-events="all" display="none" transform="translate(-7, 52)"><circle cx="8" cy="8" r="4" stroke="none" fill="red" fill-opacity="0.3"/></g><g pointer-events="all" display="none" transform="translate(17, 71)"><circle cx="8" cy="8" r="4" stroke="none" fill="red" fill-opacity="0.3"/></g><g pointer-events="all" display="none" transform="translate(42, 71)"><circle cx="8" cy="8" r="4" stroke="none" fill="red" fill-opacity="0.3"/></g><g pointer-events="all" display="none" transform="translate(67, 71)"><circle cx="8" cy="8" r="4" stroke="none" fill="red" fill-opacity="0.3"/></g><g pointer-events="all" display="none" transform="translate(91, 12)"><circle cx="8" cy="8" r="4" stroke="none" fill="red" fill-opacity="0.3"/></g><g pointer-events="all" display="none" transform="translate(91, 32)"><circle cx="8" cy="8" r="4" stroke="none" fill="red" fill-opacity="0.3"/></g><g pointer-events="all" display="none" transform="translate(91, 52)"><circle cx="8" cy="8" r="4" stroke="none" fill="red" fill-opacity="0.3"/></g><g pointer-events="all" display="none" transform="translate(17, -7)"><circle cx="8" cy="8" r="4" stroke="none" fill="red" fill-opacity="0.3"/></g><g pointer-events="all" display="none" transform="translate(42, -7)"><circle cx="8" cy="8" r="4" stroke="none" fill="red" fill-opacity="0.3"/></g><g pointer-events="all" display="none" transform="translate(67, -7)"><circle cx="8" cy="8" r="4" stroke="none" fill="red" fill-opacity="0.3"/></g><g pointer-events="all" display="none" transform="translate(42, 32)"><circle cx="8" cy="8" r="4" stroke="none" fill="red" fill-opacity="0.3"/></g></g></g></g><g id="_917BE603-DB3A-4EA1-9E5C-D8EB9882A09E" bpmn2nodeid="_84F1E8C6-FDE7-4B1A-8CA9-78BB92C58013"><g class="stencils" transform="translate(340, 140)"><g class="me"><g pointer-events="fill" oryx:minimumSize="50 40" id="_917BE603-DB3A-4EA1-9E5C-D8EB9882A09E">   	<defs id="_917BE603-DB3A-4EA1-9E5C-D8EB9882A09E__917BE603-DB3A-4EA1-9E5C-D8EB9882A09E_17"> 		<radialGradient id="_917BE603-DB3A-4EA1-9E5C-D8EB9882A09Ebackground" cx="10%" cy="10%" r="100%" fx="10%" fy="10%"> 			<stop offset="0%" stop-color="#ffffff" stop-opacity="1" id="_917BE603-DB3A-4EA1-9E5C-D8EB9882A09E__917BE603-DB3A-4EA1-9E5C-D8EB9882A09E_18"/> 			<stop id="_917BE603-DB3A-4EA1-9E5C-D8EB9882A09Efill_el" offset="100%" stop-color="#fafad2" stop-opacity="1"/> 		</radialGradient> 		<radialGradient id="_917BE603-DB3A-4EA1-9E5C-D8EB9882A09Eborderbackground" cx="10%" cy="10%" r="100%" fx="10%" fy="10%"> 			<stop offset="0%" stop-color="#ffffff" stop-opacity="1" id="_917BE603-DB3A-4EA1-9E5C-D8EB9882A09E__917BE603-DB3A-4EA1-9E5C-D8EB9882A09E_19"/> 			<stop id="_917BE603-DB3A-4EA1-9E5C-D8EB9882A09Efill_border" offset="100%" stop-color="#000000" stop-opacity="1" stroke="#000000"/> 		</radialGradient> 	</defs> 	 	<rect id="_917BE603-DB3A-4EA1-9E5C-D8EB9882A09Etext_frame" oryx:anchors="bottom top right left" x="1" y="1" width="94" height="79" rx="10" ry="10" stroke="none" stroke-width="0" fill="none"/> 	<rect id="_917BE603-DB3A-4EA1-9E5C-D8EB9882A09Ebg_frame" oryx:resize="vertical horizontal" x="0" y="0" width="100" height="80" rx="10" ry="10" stroke="#000000" stroke-width="1" fill="url(#_917BE603-DB3A-4EA1-9E5C-D8EB9882A09Ebackground) #ffffcc"/> 		<text font-size="12" id="_917BE603-DB3A-4EA1-9E5C-D8EB9882A09Etext_name" x="50" y="40" oryx:align="middle center" oryx:fittoelem="text_frame" stroke="black" text-anchor="middle" stroke-width="0pt" letter-spacing="-0.01px" fill="#000000" transform="rotate(0 50 40)" visibility="inherit" oryx:fontSize="12"><tspan x="50" y="40" dy="5">usertask</tspan></text>     <g id="_917BE603-DB3A-4EA1-9E5C-D8EB9882A09EmanualTask" transform="scale(0.7,0.7) translate(8,8)" display="none">     	<path oryx:anchors="top left" id="_917BE603-DB3A-4EA1-9E5C-D8EB9882A09Eframe" style="opacity:1;fill:none;fill-opacity:1;stroke-width:1" d="M0.5,3.751l4.083-3.25c0,0,11.166,0.083,12.083,0.083s-2.417,2.917-1.5,2.917     s11.667,0,12.584,0c1.166,1.708-0.168,3.167-0.834,3.667s0.875,1.917-1,4.417c-0.75,0.25,0.75,1.875-1.333,3.333     c-1.167,0.583,0.583,1.542-1.25,2.833c-1.167,0-20.833,0.083-20.833,0.083l-2-1.333V3.751z" stroke="#000000"/> 		<path id="_917BE603-DB3A-4EA1-9E5C-D8EB9882A09Eframe2" oryx:anchors="top left" style="opacity:1;fill:none;stroke-width:2" d="M 13.5 7 L 27 7" stroke="#000000"/> 		<path id="_917BE603-DB3A-4EA1-9E5C-D8EB9882A09Eframe3" oryx:anchors="top left" style="opacity:1;fill:none;stroke-width:2" d="M 13.5 11 L 26 11" stroke="#000000"/> 		<path id="_917BE603-DB3A-4EA1-9E5C-D8EB9882A09Eframe4" oryx:anchors="top left" style="opacity:1;fill:none;stroke-width:1.5" d="M 14 14.5 L 25 14.5" stroke="#000000"/> 		<path id="_917BE603-DB3A-4EA1-9E5C-D8EB9882A09Eframe5" oryx:anchors="top left" style="opacity:1;fill:none;stroke-width:1.5" d="M 8.2 3.1 L 15 3.1" stroke="#000000"/> 	</g> 	 	<g id="_917BE603-DB3A-4EA1-9E5C-D8EB9882A09EbusinessRuleTask" transform="scale(0.7,0.7) translate(8,8)" display="none"> 		<rect id="_917BE603-DB3A-4EA1-9E5C-D8EB9882A09Eframe6" oryx:anchors="top left" x="0" y="0" width="22" height="4" style="opacity:1;fill:#B3B1B3;fill-opacity:1;" stroke="#000000"/> 		<rect id="_917BE603-DB3A-4EA1-9E5C-D8EB9882A09Eframe7" oryx:anchors="top left" x="0" y="4" style="opacity:1;fill:none;" width="22" height="12" stroke="#000000"/> 		<path id="_917BE603-DB3A-4EA1-9E5C-D8EB9882A09Eframe8" oryx:anchors="top left" style="opacity:1;fill:none;" d="M 0 10 L 22 10" stroke="#000000"/> 		<path id="_917BE603-DB3A-4EA1-9E5C-D8EB9882A09Eframe9" oryx:anchors="top left" style="opacity:1; fill:none;" d="M 7 4 L 7 16" stroke="#000000"/> 	</g> 	 	<g id="_917BE603-DB3A-4EA1-9E5C-D8EB9882A09EscriptTask" transform="scale(0.7,0.7) translate(8,8)" display="none"> 		<path oryx:anchors="top left" id="_917BE603-DB3A-4EA1-9E5C-D8EB9882A09Eframe10" style="opacity:1;fill:none;" stroke="#000000" d="M6.402,0.5h14.5c0,0-5.833,2.833-5.833,5.583s4.417,6,4.417,9.167    s-4.167,5.083-4.167,5.083H0.235c0,0,5-2.667,5-5s-4.583-6.75-4.583-9.25S6.402,0.5,6.402,0.5z"/> 		<path oryx:anchors="top left" id="_917BE603-DB3A-4EA1-9E5C-D8EB9882A09Eframe11" style="opacity:1;fill:none;stroke-width:1.5" d="M 3.5 4.5 L 13.5 4.5" stroke="#000000"/> 		<path oryx:anchors="top left" id="_917BE603-DB3A-4EA1-9E5C-D8EB9882A09Eframe12" style="opacity:1;fill:none;stroke-width:1.5" d="M 3.8 8.5 L 13.8 8.5" stroke="#000000"/> 		<path oryx:anchors="top left" id="_917BE603-DB3A-4EA1-9E5C-D8EB9882A09Eframe13" style="opacity:1;fill:none;stroke-width:1.5" d="M 6.3 12.5 L 16.3 12.5" stroke="#000000"/> 		<path oryx:anchors="top left" id="_917BE603-DB3A-4EA1-9E5C-D8EB9882A09Eframe14" style="opacity:1;fill:none;stroke-width:1.5" d="M 6.5 16.5 L 16.5 16.5" stroke="#000000"/> 	</g> 	 	<g id="_917BE603-DB3A-4EA1-9E5C-D8EB9882A09EuserTask" transform="scale(0.7,0.7) translate(8,8)" display="inherit"> 		<path id="_917BE603-DB3A-4EA1-9E5C-D8EB9882A09Eframe15" oryx:anchors="top left" style="opacity:1;fill:#F4F6F7" stroke="#000000" d="M0.585,24.167h24.083v-7.833c0,0-2.333-3.917-7.083-5.167h-9.25    c-4.417,1.333-7.833,5.75-7.833,5.75L0.585,24.167z"/> 		<path id="_917BE603-DB3A-4EA1-9E5C-D8EB9882A09Eframe16" oryx:anchors="top left" style="opacity:1;fill:none" d="M 6 20 L 6 24" stroke="#000000"/> 		<path id="_917BE603-DB3A-4EA1-9E5C-D8EB9882A09Eframe17" oryx:anchors="top left" style="opacity:1;fill:none" d="M 20 20 L 20 24" stroke="#000000"/> 		<circle id="_917BE603-DB3A-4EA1-9E5C-D8EB9882A09Eframe18" oryx:anchors="top left" fill="black" cx="13.002" cy="5.916" r="5.417" stroke="#000000"/> 		<path id="_917BE603-DB3A-4EA1-9E5C-D8EB9882A09Eframe19" oryx:anchors="top left" style="opacity:1;fill:#F0EFF0;" stroke="#000000" d="M8.043,7.083c0,0,2.814-2.426,5.376-1.807s4.624-0.693,4.624-0.693    c0.25,1.688,0.042,3.75-1.458,5.584c0,0,1.083,0.75,1.083,1.5s0.125,1.875-1,3s-5.5,1.25-6.75,0S8.668,12.834,8.668,12    s0.583-1.25,1.25-1.917C8.835,9.5,7.419,7.708,8.043,7.083z"/> 	</g> 	 	<g id="_917BE603-DB3A-4EA1-9E5C-D8EB9882A09EserviceTask" transform="scale(0.7,0.7) translate(8,8)" display="none"> 		<polygon oryx:anchors="top left" id="_917BE603-DB3A-4EA1-9E5C-D8EB9882A09Eframe20" style="opacity:1;fill:#ffffff" stroke="#000000" points="15.392,5.064 17.954,2.502 20.347,4.895 17.786,7.455     18.729,9.732 22.353,9.732 22.353,13.115 18.731,13.115 17.788,15.392 20.351,17.955 17.958,20.347 15.397,17.786 13.12,18.729     13.12,22.353 9.737,22.353 9.737,18.731 7.46,17.788 4.897,20.35 2.506,17.958 5.066,15.397 4.124,13.12 0.5,13.12 0.5,9.737     4.121,9.737 5.065,7.461 2.503,4.898 4.895,2.506 7.455,5.066 9.732,4.125 9.732,0.5 13.116,0.5 13.116,4.121 "/> 		<circle oryx:anchors="top left" id="_917BE603-DB3A-4EA1-9E5C-D8EB9882A09Eframe21" style="opacity:1;fill:none" stroke="#000000" cx="11.427" cy="11.426" r="3.714"/> 		<polygon oryx:anchors="top left" id="_917BE603-DB3A-4EA1-9E5C-D8EB9882A09Eframe22" style="opacity:1;fill:#ffffff" stroke="#000000" points="21.392,11.064 23.954,8.502 26.347,10.895 23.786,13.455     24.729,15.732 28.353,15.732 28.353,19.115 24.731,19.115 23.788,21.392 26.351,23.955 23.958,26.347 21.397,23.786 19.12,24.729     19.12,28.353 15.737,28.353 15.737,24.731 13.46,23.788 10.897,26.35 8.506,23.958 11.066,21.397 10.124,19.12 6.5,19.12     6.5,15.737 10.121,15.737 11.065,13.461 8.503,10.898 10.895,8.506 13.455,11.066 15.732,10.125 15.732,6.5 19.116,6.5     19.116,10.121 "/> 		<circle oryx:anchors="top left" id="_917BE603-DB3A-4EA1-9E5C-D8EB9882A09Eframe23" style="opacity:1;fill:none;" stroke="#000000" cx="17.427" cy="17.426" r="3.714"/> 	</g> 	 	<g id="_917BE603-DB3A-4EA1-9E5C-D8EB9882A09EsendTask" display="none"> 		<path id="_917BE603-DB3A-4EA1-9E5C-D8EB9882A09Estframe24" oryx:anchors="left top" stroke="#FFFFFF" fill="black" stroke-width="1" d="M8,11 L8,21 L24,21 L24,11 L16,17z"/> 		<path id="_917BE603-DB3A-4EA1-9E5C-D8EB9882A09Estframe25" oryx:anchors="left top" stroke="#FFFFFF" fill="black" stroke-width="1" d="M7,10 L16,17 L25 10z"/> 	</g> 	 	<g id="_917BE603-DB3A-4EA1-9E5C-D8EB9882A09EreceiveTask" display="none"> 		<path id="_917BE603-DB3A-4EA1-9E5C-D8EB9882A09Eframe26" oryx:anchors="left top" stroke="#000000" fill="none" stroke-width="1" d="M8,11 L8,21 L24,21 L24,11z M8,11 L16,17 L24,11"/> 	</g> 	 	<g id="_917BE603-DB3A-4EA1-9E5C-D8EB9882A09Enone" display="inherit"/>  	<g id="_917BE603-DB3A-4EA1-9E5C-D8EB9882A09Esequential" display="none">         <path oryx:anchors="bottom" fill="none" stroke="#000000" stroke-width="2" d="M46,76h10M46,72h10 M46,68h10" id="_917BE603-DB3A-4EA1-9E5C-D8EB9882A09E__917BE603-DB3A-4EA1-9E5C-D8EB9882A09E_20"/>     </g>   </g></g><g class="children" style="overflow:hidden"/><g class="edge"/></g><g class="controls"><g class="dockers"/><g class="magnets" transform="translate(340, 140)"><g pointer-events="all" display="none" transform="translate(-7, 12)"><circle cx="8" cy="8" r="4" stroke="none" fill="red" fill-opacity="0.3"/></g><g pointer-events="all" display="none" transform="translate(-7, 32)"><circle cx="8" cy="8" r="4" stroke="none" fill="red" fill-opacity="0.3"/></g><g pointer-events="all" display="none" transform="translate(-7, 52)"><circle cx="8" cy="8" r="4" stroke="none" fill="red" fill-opacity="0.3"/></g><g pointer-events="all" display="none" transform="translate(17, 71)"><circle cx="8" cy="8" r="4" stroke="none" fill="red" fill-opacity="0.3"/></g><g pointer-events="all" display="none" transform="translate(42, 71)"><circle cx="8" cy="8" r="4" stroke="none" fill="red" fill-opacity="0.3"/></g><g pointer-events="all" display="none" transform="translate(67, 71)"><circle cx="8" cy="8" r="4" stroke="none" fill="red" fill-opacity="0.3"/></g><g pointer-events="all" display="none" transform="translate(91, 12)"><circle cx="8" cy="8" r="4" stroke="none" fill="red" fill-opacity="0.3"/></g><g pointer-events="all" display="none" transform="translate(91, 32)"><circle cx="8" cy="8" r="4" stroke="none" fill="red" fill-opacity="0.3"/></g><g pointer-events="all" display="none" transform="translate(91, 52)"><circle cx="8" cy="8" r="4" stroke="none" fill="red" fill-opacity="0.3"/></g><g pointer-events="all" display="none" transform="translate(17, -7)"><circle cx="8" cy="8" r="4" stroke="none" fill="red" fill-opacity="0.3"/></g><g pointer-events="all" display="none" transform="translate(42, -7)"><circle cx="8" cy="8" r="4" stroke="none" fill="red" fill-opacity="0.3"/></g><g pointer-events="all" display="none" transform="translate(67, -7)"><circle cx="8" cy="8" r="4" stroke="none" fill="red" fill-opacity="0.3"/></g><g pointer-events="all" display="none" transform="translate(42, 32)"><circle cx="8" cy="8" r="4" stroke="none" fill="red" fill-opacity="0.3"/></g></g></g></g><g id="_D158BEDD-FFCB-4E78-81D9-6B5D9D50EC6E" bpmn2nodeid="_63D7087F-7E59-481B-A858-8146481BCE68"><g class="stencils" transform="translate(485, 140)"><g class="me"><g pointer-events="fill" oryx:minimumSize="50 40" id="_D158BEDD-FFCB-4E78-81D9-6B5D9D50EC6E">   	<defs id="_D158BEDD-FFCB-4E78-81D9-6B5D9D50EC6E__D158BEDD-FFCB-4E78-81D9-6B5D9D50EC6E_17"> 		<radialGradient id="_D158BEDD-FFCB-4E78-81D9-6B5D9D50EC6Ebackground" cx="10%" cy="10%" r="100%" fx="10%" fy="10%"> 			<stop offset="0%" stop-color="#ffffff" stop-opacity="1" id="_D158BEDD-FFCB-4E78-81D9-6B5D9D50EC6E__D158BEDD-FFCB-4E78-81D9-6B5D9D50EC6E_18"/> 			<stop id="_D158BEDD-FFCB-4E78-81D9-6B5D9D50EC6Efill_el" offset="100%" stop-color="#fafad2" stop-opacity="1"/> 		</radialGradient> 		<radialGradient id="_D158BEDD-FFCB-4E78-81D9-6B5D9D50EC6Eborderbackground" cx="10%" cy="10%" r="100%" fx="10%" fy="10%"> 			<stop offset="0%" stop-color="#ffffff" stop-opacity="1" id="_D158BEDD-FFCB-4E78-81D9-6B5D9D50EC6E__D158BEDD-FFCB-4E78-81D9-6B5D9D50EC6E_19"/> 			<stop id="_D158BEDD-FFCB-4E78-81D9-6B5D9D50EC6Efill_border" offset="100%" stop-color="#000000" stop-opacity="1" stroke="#000000"/> 		</radialGradient> 	</defs> 	 	<rect id="_D158BEDD-FFCB-4E78-81D9-6B5D9D50EC6Etext_frame" oryx:anchors="bottom top right left" x="1" y="1" width="94" height="79" rx="10" ry="10" stroke="none" stroke-width="0" fill="none"/> 	<rect id="_D158BEDD-FFCB-4E78-81D9-6B5D9D50EC6Ebg_frame" oryx:resize="vertical horizontal" x="0" y="0" width="100" height="80" rx="10" ry="10" stroke="#000000" stroke-width="1" fill="url(#_D158BEDD-FFCB-4E78-81D9-6B5D9D50EC6Ebackground) #ffffcc"/> 		<text font-size="12" id="_D158BEDD-FFCB-4E78-81D9-6B5D9D50EC6Etext_name" x="50" y="40" oryx:align="middle center" oryx:fittoelem="text_frame" stroke="black" text-anchor="middle" stroke-width="0pt" letter-spacing="-0.01px" fill="#000000" transform="rotate(0 50 40)" visibility="inherit" oryx:fontSize="12"><tspan x="50" y="40" dy="5">sysout2</tspan></text>     <g id="_D158BEDD-FFCB-4E78-81D9-6B5D9D50EC6EmanualTask" transform="scale(0.7,0.7) translate(8,8)" display="none">     	<path oryx:anchors="top left" id="_D158BEDD-FFCB-4E78-81D9-6B5D9D50EC6Eframe" style="opacity:1;fill:none;fill-opacity:1;stroke-width:1" d="M0.5,3.751l4.083-3.25c0,0,11.166,0.083,12.083,0.083s-2.417,2.917-1.5,2.917     s11.667,0,12.584,0c1.166,1.708-0.168,3.167-0.834,3.667s0.875,1.917-1,4.417c-0.75,0.25,0.75,1.875-1.333,3.333     c-1.167,0.583,0.583,1.542-1.25,2.833c-1.167,0-20.833,0.083-20.833,0.083l-2-1.333V3.751z" stroke="#000000"/> 		<path id="_D158BEDD-FFCB-4E78-81D9-6B5D9D50EC6Eframe2" oryx:anchors="top left" style="opacity:1;fill:none;stroke-width:2" d="M 13.5 7 L 27 7" stroke="#000000"/> 		<path id="_D158BEDD-FFCB-4E78-81D9-6B5D9D50EC6Eframe3" oryx:anchors="top left" style="opacity:1;fill:none;stroke-width:2" d="M 13.5 11 L 26 11" stroke="#000000"/> 		<path id="_D158BEDD-FFCB-4E78-81D9-6B5D9D50EC6Eframe4" oryx:anchors="top left" style="opacity:1;fill:none;stroke-width:1.5" d="M 14 14.5 L 25 14.5" stroke="#000000"/> 		<path id="_D158BEDD-FFCB-4E78-81D9-6B5D9D50EC6Eframe5" oryx:anchors="top left" style="opacity:1;fill:none;stroke-width:1.5" d="M 8.2 3.1 L 15 3.1" stroke="#000000"/> 	</g> 	 	<g id="_D158BEDD-FFCB-4E78-81D9-6B5D9D50EC6EbusinessRuleTask" transform="scale(0.7,0.7) translate(8,8)" display="none"> 		<rect id="_D158BEDD-FFCB-4E78-81D9-6B5D9D50EC6Eframe6" oryx:anchors="top left" x="0" y="0" width="22" height="4" style="opacity:1;fill:#B3B1B3;fill-opacity:1;" stroke="#000000"/> 		<rect id="_D158BEDD-FFCB-4E78-81D9-6B5D9D50EC6Eframe7" oryx:anchors="top left" x="0" y="4" style="opacity:1;fill:none;" width="22" height="12" stroke="#000000"/> 		<path id="_D158BEDD-FFCB-4E78-81D9-6B5D9D50EC6Eframe8" oryx:anchors="top left" style="opacity:1;fill:none;" d="M 0 10 L 22 10" stroke="#000000"/> 		<path id="_D158BEDD-FFCB-4E78-81D9-6B5D9D50EC6Eframe9" oryx:anchors="top left" style="opacity:1; fill:none;" d="M 7 4 L 7 16" stroke="#000000"/> 	</g> 	 	<g id="_D158BEDD-FFCB-4E78-81D9-6B5D9D50EC6EscriptTask" transform="scale(0.7,0.7) translate(8,8)" display="inherit"> 		<path oryx:anchors="top left" id="_D158BEDD-FFCB-4E78-81D9-6B5D9D50EC6Eframe10" style="opacity:1;fill:none;" stroke="#000000" d="M6.402,0.5h14.5c0,0-5.833,2.833-5.833,5.583s4.417,6,4.417,9.167    s-4.167,5.083-4.167,5.083H0.235c0,0,5-2.667,5-5s-4.583-6.75-4.583-9.25S6.402,0.5,6.402,0.5z"/> 		<path oryx:anchors="top left" id="_D158BEDD-FFCB-4E78-81D9-6B5D9D50EC6Eframe11" style="opacity:1;fill:none;stroke-width:1.5" d="M 3.5 4.5 L 13.5 4.5" stroke="#000000"/> 		<path oryx:anchors="top left" id="_D158BEDD-FFCB-4E78-81D9-6B5D9D50EC6Eframe12" style="opacity:1;fill:none;stroke-width:1.5" d="M 3.8 8.5 L 13.8 8.5" stroke="#000000"/> 		<path oryx:anchors="top left" id="_D158BEDD-FFCB-4E78-81D9-6B5D9D50EC6Eframe13" style="opacity:1;fill:none;stroke-width:1.5" d="M 6.3 12.5 L 16.3 12.5" stroke="#000000"/> 		<path oryx:anchors="top left" id="_D158BEDD-FFCB-4E78-81D9-6B5D9D50EC6Eframe14" style="opacity:1;fill:none;stroke-width:1.5" d="M 6.5 16.5 L 16.5 16.5" stroke="#000000"/> 	</g> 	 	<g id="_D158BEDD-FFCB-4E78-81D9-6B5D9D50EC6EuserTask" transform="scale(0.7,0.7) translate(8,8)" display="none"> 		<path id="_D158BEDD-FFCB-4E78-81D9-6B5D9D50EC6Eframe15" oryx:anchors="top left" style="opacity:1;fill:#F4F6F7" stroke="#000000" d="M0.585,24.167h24.083v-7.833c0,0-2.333-3.917-7.083-5.167h-9.25    c-4.417,1.333-7.833,5.75-7.833,5.75L0.585,24.167z"/> 		<path id="_D158BEDD-FFCB-4E78-81D9-6B5D9D50EC6Eframe16" oryx:anchors="top left" style="opacity:1;fill:none" d="M 6 20 L 6 24" stroke="#000000"/> 		<path id="_D158BEDD-FFCB-4E78-81D9-6B5D9D50EC6Eframe17" oryx:anchors="top left" style="opacity:1;fill:none" d="M 20 20 L 20 24" stroke="#000000"/> 		<circle id="_D158BEDD-FFCB-4E78-81D9-6B5D9D50EC6Eframe18" oryx:anchors="top left" fill="black" cx="13.002" cy="5.916" r="5.417" stroke="#000000"/> 		<path id="_D158BEDD-FFCB-4E78-81D9-6B5D9D50EC6Eframe19" oryx:anchors="top left" style="opacity:1;fill:#F0EFF0;" stroke="#000000" d="M8.043,7.083c0,0,2.814-2.426,5.376-1.807s4.624-0.693,4.624-0.693    c0.25,1.688,0.042,3.75-1.458,5.584c0,0,1.083,0.75,1.083,1.5s0.125,1.875-1,3s-5.5,1.25-6.75,0S8.668,12.834,8.668,12    s0.583-1.25,1.25-1.917C8.835,9.5,7.419,7.708,8.043,7.083z"/> 	</g> 	 	<g id="_D158BEDD-FFCB-4E78-81D9-6B5D9D50EC6EserviceTask" transform="scale(0.7,0.7) translate(8,8)" display="none"> 		<polygon oryx:anchors="top left" id="_D158BEDD-FFCB-4E78-81D9-6B5D9D50EC6Eframe20" style="opacity:1;fill:#ffffff" stroke="#000000" points="15.392,5.064 17.954,2.502 20.347,4.895 17.786,7.455     18.729,9.732 22.353,9.732 22.353,13.115 18.731,13.115 17.788,15.392 20.351,17.955 17.958,20.347 15.397,17.786 13.12,18.729     13.12,22.353 9.737,22.353 9.737,18.731 7.46,17.788 4.897,20.35 2.506,17.958 5.066,15.397 4.124,13.12 0.5,13.12 0.5,9.737     4.121,9.737 5.065,7.461 2.503,4.898 4.895,2.506 7.455,5.066 9.732,4.125 9.732,0.5 13.116,0.5 13.116,4.121 "/> 		<circle oryx:anchors="top left" id="_D158BEDD-FFCB-4E78-81D9-6B5D9D50EC6Eframe21" style="opacity:1;fill:none" stroke="#000000" cx="11.427" cy="11.426" r="3.714"/> 		<polygon oryx:anchors="top left" id="_D158BEDD-FFCB-4E78-81D9-6B5D9D50EC6Eframe22" style="opacity:1;fill:#ffffff" stroke="#000000" points="21.392,11.064 23.954,8.502 26.347,10.895 23.786,13.455     24.729,15.732 28.353,15.732 28.353,19.115 24.731,19.115 23.788,21.392 26.351,23.955 23.958,26.347 21.397,23.786 19.12,24.729     19.12,28.353 15.737,28.353 15.737,24.731 13.46,23.788 10.897,26.35 8.506,23.958 11.066,21.397 10.124,19.12 6.5,19.12     6.5,15.737 10.121,15.737 11.065,13.461 8.503,10.898 10.895,8.506 13.455,11.066 15.732,10.125 15.732,6.5 19.116,6.5     19.116,10.121 "/> 		<circle oryx:anchors="top left" id="_D158BEDD-FFCB-4E78-81D9-6B5D9D50EC6Eframe23" style="opacity:1;fill:none;" stroke="#000000" cx="17.427" cy="17.426" r="3.714"/> 	</g> 	 	<g id="_D158BEDD-FFCB-4E78-81D9-6B5D9D50EC6EsendTask" display="none"> 		<path id="_D158BEDD-FFCB-4E78-81D9-6B5D9D50EC6Estframe24" oryx:anchors="left top" stroke="#FFFFFF" fill="black" stroke-width="1" d="M8,11 L8,21 L24,21 L24,11 L16,17z"/> 		<path id="_D158BEDD-FFCB-4E78-81D9-6B5D9D50EC6Estframe25" oryx:anchors="left top" stroke="#FFFFFF" fill="black" stroke-width="1" d="M7,10 L16,17 L25 10z"/> 	</g> 	 	<g id="_D158BEDD-FFCB-4E78-81D9-6B5D9D50EC6EreceiveTask" display="none"> 		<path id="_D158BEDD-FFCB-4E78-81D9-6B5D9D50EC6Eframe26" oryx:anchors="left top" stroke="#000000" fill="none" stroke-width="1" d="M8,11 L8,21 L24,21 L24,11z M8,11 L16,17 L24,11"/> 	</g> 	 	<g id="_D158BEDD-FFCB-4E78-81D9-6B5D9D50EC6Enone" display="inherit"/>  	<g id="_D158BEDD-FFCB-4E78-81D9-6B5D9D50EC6Esequential" display="none">         <path oryx:anchors="bottom" fill="none" stroke="#000000" stroke-width="2" d="M46,76h10M46,72h10 M46,68h10" id="_D158BEDD-FFCB-4E78-81D9-6B5D9D50EC6E__D158BEDD-FFCB-4E78-81D9-6B5D9D50EC6E_20"/>     </g>   </g></g><g class="children" style="overflow:hidden"/><g class="edge"/></g><g class="controls"><g class="dockers"/><g class="magnets" transform="translate(485, 140)"><g pointer-events="all" display="none" transform="translate(-7, 12)"><circle cx="8" cy="8" r="4" stroke="none" fill="red" fill-opacity="0.3"/></g><g pointer-events="all" display="none" transform="translate(-7, 32)"><circle cx="8" cy="8" r="4" stroke="none" fill="red" fill-opacity="0.3"/></g><g pointer-events="all" display="none" transform="translate(-7, 52)"><circle cx="8" cy="8" r="4" stroke="none" fill="red" fill-opacity="0.3"/></g><g pointer-events="all" display="none" transform="translate(17, 71)"><circle cx="8" cy="8" r="4" stroke="none" fill="red" fill-opacity="0.3"/></g><g pointer-events="all" display="none" transform="translate(42, 71)"><circle cx="8" cy="8" r="4" stroke="none" fill="red" fill-opacity="0.3"/></g><g pointer-events="all" display="none" transform="translate(67, 71)"><circle cx="8" cy="8" r="4" stroke="none" fill="red" fill-opacity="0.3"/></g><g pointer-events="all" display="none" transform="translate(91, 12)"><circle cx="8" cy="8" r="4" stroke="none" fill="red" fill-opacity="0.3"/></g><g pointer-events="all" display="none" transform="translate(91, 32)"><circle cx="8" cy="8" r="4" stroke="none" fill="red" fill-opacity="0.3"/></g><g pointer-events="all" display="none" transform="translate(91, 52)"><circle cx="8" cy="8" r="4" stroke="none" fill="red" fill-opacity="0.3"/></g><g pointer-events="all" display="none" transform="translate(17, -7)"><circle cx="8" cy="8" r="4" stroke="none" fill="red" fill-opacity="0.3"/></g><g pointer-events="all" display="none" transform="translate(42, -7)"><circle cx="8" cy="8" r="4" stroke="none" fill="red" fill-opacity="0.3"/></g><g pointer-events="all" display="none" transform="translate(67, -7)"><circle cx="8" cy="8" r="4" stroke="none" fill="red" fill-opacity="0.3"/></g><g pointer-events="all" display="none" transform="translate(42, 32)"><circle cx="8" cy="8" r="4" stroke="none" fill="red" fill-opacity="0.3"/></g></g></g></g><g id="_75669D7E-20E4-45D0-B7B9-47CEB53D1198" bpmn2nodeid="_FE407928-E48E-4F5B-BA26-61111E56E080"><g class="stencils" transform="translate(630, 166)"><g class="me"><g pointer-events="fill" id="_75669D7E-20E4-45D0-B7B9-47CEB53D1198">      <defs id="_75669D7E-20E4-45D0-B7B9-47CEB53D1198__75669D7E-20E4-45D0-B7B9-47CEB53D1198_5"> 		<radialGradient id="_75669D7E-20E4-45D0-B7B9-47CEB53D1198background" cx="10%" cy="10%" r="100%" fx="10%" fy="10%"> 			<stop offset="0%" stop-color="#ffffff" stop-opacity="1" id="_75669D7E-20E4-45D0-B7B9-47CEB53D1198__75669D7E-20E4-45D0-B7B9-47CEB53D1198_6"/> 			<stop id="_75669D7E-20E4-45D0-B7B9-47CEB53D1198fill_el" offset="100%" stop-color="#ff6347" stop-opacity="1"/> 		</radialGradient> 	</defs> 	     <circle id="_75669D7E-20E4-45D0-B7B9-47CEB53D1198bg_frame" cx="14" cy="14" r="14" stroke="#000000" fill="url(#_75669D7E-20E4-45D0-B7B9-47CEB53D1198background) white" stroke-width="3"/> 	<text font-size="11" id="_75669D7E-20E4-45D0-B7B9-47CEB53D1198text_name" x="14" y="30" oryx:align="top center" stroke="black" stroke-width="0pt" letter-spacing="-0.01px" fill="#000000" text-anchor="middle" transform="rotate(0 14 30)" visibility="inherit" oryx:fontSize="11"/>   </g></g><g class="children" style="overflow:hidden"/><g class="edge"/></g><g class="controls"><g class="dockers"/><g class="magnets" transform="translate(630, 166)"><g pointer-events="all" display="none" transform="translate(6, 6)"><circle cx="8" cy="8" r="4" stroke="none" fill="red" fill-opacity="0.3"/></g></g></g></g></g><g class="edge"><g id="_AA779A34-58DD-4F48-A32B-9A460D8E8DAA" bpmn2nodeid="_CEBA113C-C1B8-4785-B234-AA6EF1857290"><g class="stencils"><g class="me"><g pointer-events="painted" bpmn2nodeid="_7427F878-7C55-4CA4-A258-771B9AFB5A47"><path id="_AA779A34-58DD-4F48-A32B-9A460D8E8DAA_1" d="M150.609375 180L194.15625 180 " stroke="#000000" fill="none" stroke-width="2" stroke-linecap="round" stroke-linejoin="round" marker-start="url(#_AA779A34-58DD-4F48-A32B-9A460D8E8DAAstart)" marker-end="url(#_AA779A34-58DD-4F48-A32B-9A460D8E8DAAend)"/></g><text id="_AA779A34-58DD-4F48-A32B-9A460D8E8DAAtext_name" font-size="12" x="164.609375" y="166" oryx:edgePosition="startTop" stroke-width="0pt" letter-spacing="-0.01px" fill="#000000" text-anchor="start" transform="rotate(360 150.609375 180)" visibility="inherit" oryx:fontSize="12"/></g><g class="children" style="overflow:hidden"/><g class="edge"/></g><g class="controls"><g class="dockers"/><g class="magnets"/></g></g><g id="_FC8FA4B0-261A-4CA0-8ECD-D103E435BB48" bpmn2nodeid="_EE495E3D-69B4-4066-A75E-2F2C148D4576"><g class="stencils"><g class="me"><g pointer-events="painted" bpmn2nodeid="_F63D9290-2D25-4BFE-B9B7-2482A8A4DFD3"><path id="_FC8FA4B0-261A-4CA0-8ECD-D103E435BB48_1" d="M295.84375 180L339.15625 180 " stroke="#000000" fill="none" stroke-width="2" stroke-linecap="round" stroke-linejoin="round" marker-start="url(#_FC8FA4B0-261A-4CA0-8ECD-D103E435BB48start)" marker-end="url(#_FC8FA4B0-261A-4CA0-8ECD-D103E435BB48end)"/></g><text id="_FC8FA4B0-261A-4CA0-8ECD-D103E435BB48text_name" font-size="12" x="309.84375" y="166" oryx:edgePosition="startTop" stroke-width="0pt" letter-spacing="-0.01px" fill="#000000" text-anchor="start" transform="rotate(360 295.84375 180)" visibility="inherit" oryx:fontSize="12"/></g><g class="children" style="overflow:hidden"/><g class="edge"/></g><g class="controls"><g class="dockers"/><g class="magnets"/></g></g><g id="_B616B248-501E-49E9-BE47-677522F5A1D1" bpmn2nodeid="_A05B70E8-F510-465B-812E-1BC094FB6C5F"><g class="stencils"><g class="me"><g pointer-events="painted" bpmn2nodeid="_86DFB9E5-EE5E-45B2-AEED-BF01764D051C"><path id="_B616B248-501E-49E9-BE47-677522F5A1D1_1" d="M440.84375 180L484.15625 180 " stroke="#000000" fill="none" stroke-width="2" stroke-linecap="round" stroke-linejoin="round" marker-start="url(#_B616B248-501E-49E9-BE47-677522F5A1D1start)" marker-end="url(#_B616B248-501E-49E9-BE47-677522F5A1D1end)"/></g><text id="_B616B248-501E-49E9-BE47-677522F5A1D1text_name" font-size="12" x="454.84375" y="166" oryx:edgePosition="startTop" stroke-width="0pt" letter-spacing="-0.01px" fill="#000000" text-anchor="start" transform="rotate(360 440.84375 180)" visibility="inherit" oryx:fontSize="12"/></g><g class="children" style="overflow:hidden"/><g class="edge"/></g><g class="controls"><g class="dockers"/><g class="magnets"/></g></g><g id="_280B3972-B343-4662-920C-A8BB3AC6D0CD" bpmn2nodeid="_4F58AF7A-9CFA-4D3F-9532-28675FE2FB3E"><g class="stencils"><g class="me"><g pointer-events="painted" bpmn2nodeid="_AF8C5771-506A-4C0E-8FEF-FE890ADB93FD"><path id="_280B3972-B343-4662-920C-A8BB3AC6D0CD_1" d="M585.390625 180L629.375 180 " stroke="#000000" fill="none" stroke-width="2" stroke-linecap="round" stroke-linejoin="round" marker-start="url(#_280B3972-B343-4662-920C-A8BB3AC6D0CDstart)" marker-end="url(#_280B3972-B343-4662-920C-A8BB3AC6D0CDend)"/></g><text id="_280B3972-B343-4662-920C-A8BB3AC6D0CDtext_name" font-size="12" x="599.390625" y="166" oryx:edgePosition="startTop" stroke-width="0pt" letter-spacing="-0.01px" fill="#000000" text-anchor="start" transform="rotate(360 585.390625 180)" visibility="inherit" oryx:fontSize="12"/></g><g class="children" style="overflow:hidden"/><g class="edge"/></g><g class="controls"><g class="dockers"/><g class="magnets"/></g></g></g><text id="_39B2622E-4669-4918-88FB-DB2551E48ABF" style="stroke-width:1;fill:rgb(177,194,214);font-family:arial;font-weight:bold" font-size="12" onclick="ORYX.Plugins.CanvasTitle.openTextualAnalysis()" onmouseover="ORYX.Plugins.CanvasTitle.addToolTip('_39B2622E-4669-4918-88FB-DB2551E48ABF')" transform="translate(10, 20)">process1 v.1.0 (taskproject.process1)</text></g></g></svg>