<svg xmlns="http://www.w3.org/2000/svg" xmlns:oryx="http://oryx-editor.org" id="_77BA1808-B17F-4A41-AC87-01D03622973A" width="698" height="260.65625" xmlns:xlink="http://www.w3.org/1999/xlink" xmlns:svg="http://www.w3.org/2000/svg"><defs><marker id="_AAEA135B-B9DD-4174-AE8C-A97D31FAB9C9start" refX="1" refY="5" markerUnits="userSpaceOnUse" markerWidth="17" markerHeight="11" orient="auto" fill="#000000" stroke="#000000"> 	  		<path id="_AAEA135B-B9DD-4174-AE8C-A97D31FAB9C9conditional" d="M 0 5 L 8 0 L 16 5 L 8 10 L 0 5" fill="white" stroke="#000000" stroke-width="1" display="none"/> 			<path id="_AAEA135B-B9DD-4174-AE8C-A97D31FAB9C9default" d="M 5 0 L 11 10" fill="white" stroke="#000000" stroke-width="1" display="none"/> 	  	</marker><marker id="_AAEA135B-B9DD-4174-AE8C-A97D31FAB9C9end" refX="15" refY="6" markerUnits="userSpaceOnUse" markerWidth="15" markerHeight="12" orient="auto" fill="#000000" stroke="#000000"> 	  		<path id="_AAEA135B-B9DD-4174-AE8C-A97D31FAB9C9frame2" d="M 0 1 L 15 6 L 0 11z" fill="#000000" stroke="#000000" stroke-linejoin="round" stroke-width="2"/> 	  	</marker><marker id="_6CF945AE-AE89-4E38-ACB8-777100D32350start" refX="1" refY="5" markerUnits="userSpaceOnUse" markerWidth="17" markerHeight="11" orient="auto" fill="#000000" stroke="#000000"> 	  		<path id="_6CF945AE-AE89-4E38-ACB8-777100D32350conditional" d="M 0 5 L 8 0 L 16 5 L 8 10 L 0 5" fill="white" stroke="#000000" stroke-width="1" display="none"/> 			<path id="_6CF945AE-AE89-4E38-ACB8-777100D32350default" d="M 5 0 L 11 10" fill="white" stroke="#000000" stroke-width="1" display="none"/> 	  	</marker><marker id="_6CF945AE-AE89-4E38-ACB8-777100D32350end" refX="15" refY="6" markerUnits="userSpaceOnUse" markerWidth="15" markerHeight="12" orient="auto" fill="#000000" stroke="#000000"> 	  		<path id="_6CF945AE-AE89-4E38-ACB8-777100D32350frame2" d="M 0 1 L 15 6 L 0 11z" fill="#000000" stroke="#000000" stroke-linejoin="round" stroke-width="2"/> 	  	</marker><marker id="_DD51B521-6AE7-4948-A8F0-D92753EC2653start" refX="1" refY="5" markerUnits="userSpaceOnUse" markerWidth="17" markerHeight="11" orient="auto" fill="#000000" stroke="#000000"> 	  		<path id="_DD51B521-6AE7-4948-A8F0-D92753EC2653conditional" d="M 0 5 L 8 0 L 16 5 L 8 10 L 0 5" fill="white" stroke="#000000" stroke-width="1" display="none"/> 			<path id="_DD51B521-6AE7-4948-A8F0-D92753EC2653default" d="M 5 0 L 11 10" fill="white" stroke="#000000" stroke-width="1" display="none"/> 	  	</marker><marker id="_DD51B521-6AE7-4948-A8F0-D92753EC2653end" refX="15" refY="6" markerUnits="userSpaceOnUse" markerWidth="15" markerHeight="12" orient="auto" fill="#000000" stroke="#000000"> 	  		<path id="_DD51B521-6AE7-4948-A8F0-D92753EC2653frame2" d="M 0 1 L 15 6 L 0 11z" fill="#000000" stroke="#000000" stroke-linejoin="round" stroke-width="2"/> 	  	</marker><marker id="_7AC14625-E872-4C85-9B09-E0DB3B6C2AF2start" refX="1" refY="5" markerUnits="userSpaceOnUse" markerWidth="17" markerHeight="11" orient="auto" fill="#000000" stroke="#000000"> 	  		<path id="_7AC14625-E872-4C85-9B09-E0DB3B6C2AF2conditional" d="M 0 5 L 8 0 L 16 5 L 8 10 L 0 5" fill="white" stroke="#000000" stroke-width="1" display="none"/> 			<path id="_7AC14625-E872-4C85-9B09-E0DB3B6C2AF2default" d="M 5 0 L 11 10" fill="white" stroke="#000000" stroke-width="1" display="none"/> 	  	</marker><marker id="_7AC14625-E872-4C85-9B09-E0DB3B6C2AF2end" refX="15" refY="6" markerUnits="userSpaceOnUse" markerWidth="15" markerHeight="12" orient="auto" fill="#000000" stroke="#000000"> 	  		<path id="_7AC14625-E872-4C85-9B09-E0DB3B6C2AF2frame2" d="M 0 1 L 15 6 L 0 11z" fill="#000000" stroke="#000000" stroke-linejoin="round" stroke-width="2"/> 	  	</marker></defs><g stroke="none" font-family="Verdana, sans-serif" font-size-adjust="none" font-style="normal" font-variant="normal" font-weight="normal" line-heigth="normal" font-size="12"><g class="stencils" transform="translate(15, 15.65625)"><g class="me"/><g class="children"><g id="_DB79422D-E7F2-406B-9F22-3114F0A48E1A" bpmn2nodeid="processStartEvent"><g class="stencils" transform="translate(120, 165)"><g class="me"><g pointer-events="fill" id="_DB79422D-E7F2-406B-9F22-3114F0A48E1A">        <defs id="_DB79422D-E7F2-406B-9F22-3114F0A48E1A__DB79422D-E7F2-406B-9F22-3114F0A48E1A_5"> 		<radialGradient id="_DB79422D-E7F2-406B-9F22-3114F0A48E1Abackground" cx="10%" cy="10%" r="100%" fx="10%" fy="10%"> 			<stop offset="0%" stop-color="#ffffff" stop-opacity="1" id="_DB79422D-E7F2-406B-9F22-3114F0A48E1A__DB79422D-E7F2-406B-9F22-3114F0A48E1A_6"/> 			<stop id="_DB79422D-E7F2-406B-9F22-3114F0A48E1Afill_el" offset="100%" stop-color="#9acd32" stop-opacity="1"/> 		</radialGradient> 	</defs> 	     <circle id="_DB79422D-E7F2-406B-9F22-3114F0A48E1Abg_frame" cx="15" cy="15" r="15" stroke="#000000" fill="url(#_DB79422D-E7F2-406B-9F22-3114F0A48E1Abackground) white" stroke-width="1" style="stroke-dasharray: 5.5, 3"/>      <circle id="_DB79422D-E7F2-406B-9F22-3114F0A48E1Aframe" cx="15" cy="15" r="15" stroke="#000000" fill="none" stroke-width="1" display="inherit"/>  	<text font-size="11" id="_DB79422D-E7F2-406B-9F22-3114F0A48E1Atext_name" x="15" y="32" oryx:align="top center" stroke="black" stroke-width="0pt" letter-spacing="-0.01px" fill="#000000" text-anchor="middle" transform="rotate(0 15 32)" visibility="inherit" oryx:fontSize="11"/>   </g></g><g class="children" style="overflow:hidden"/><g class="edge"/></g><g class="controls"><g class="dockers"/><g class="magnets" transform="translate(120, 165)"><g pointer-events="all" display="none" transform="translate(7, 7)"><circle cx="8" cy="8" r="4" stroke="none" fill="red" fill-opacity="0.3"/></g></g></g></g><g id="_CBDEE4D9-91D0-4967-8CB9-78CE32ADFD0C" bpmn2nodeid="_38D3619C-F291-4A4C-B6E3-D81B579DDA6F"><g class="stencils" transform="translate(195, 140)"><g class="me"><g pointer-events="fill" oryx:minimumSize="50 40" id="_CBDEE4D9-91D0-4967-8CB9-78CE32ADFD0C">   	<defs id="_CBDEE4D9-91D0-4967-8CB9-78CE32ADFD0C__CBDEE4D9-91D0-4967-8CB9-78CE32ADFD0C_17"> 		<radialGradient id="_CBDEE4D9-91D0-4967-8CB9-78CE32ADFD0Cbackground" cx="10%" cy="10%" r="100%" fx="10%" fy="10%"> 			<stop offset="0%" stop-color="#ffffff" stop-opacity="1" id="_CBDEE4D9-91D0-4967-8CB9-78CE32ADFD0C__CBDEE4D9-91D0-4967-8CB9-78CE32ADFD0C_18"/> 			<stop id="_CBDEE4D9-91D0-4967-8CB9-78CE32ADFD0Cfill_el" offset="100%" stop-color="#fafad2" stop-opacity="1"/> 		</radialGradient> 		<radialGradient id="_CBDEE4D9-91D0-4967-8CB9-78CE32ADFD0Cborderbackground" cx="10%" cy="10%" r="100%" fx="10%" fy="10%"> 			<stop offset="0%" stop-color="#ffffff" stop-opacity="1" id="_CBDEE4D9-91D0-4967-8CB9-78CE32ADFD0C__CBDEE4D9-91D0-4967-8CB9-78CE32ADFD0C_19"/> 			<stop id="_CBDEE4D9-91D0-4967-8CB9-78CE32ADFD0Cfill_border" offset="100%" stop-color="#000000" stop-opacity="1" stroke="#000000"/> 		</radialGradient> 	</defs> 	 	<rect id="_CBDEE4D9-91D0-4967-8CB9-78CE32ADFD0Ctext_frame" oryx:anchors="bottom top right left" x="1" y="1" width="94" height="79" rx="10" ry="10" stroke="none" stroke-width="0" fill="none"/> 	<rect id="_CBDEE4D9-91D0-4967-8CB9-78CE32ADFD0Cbg_frame" oryx:resize="vertical horizontal" x="0" y="0" width="100" height="80" rx="10" ry="10" stroke="#000000" stroke-width="1" fill="url(#_CBDEE4D9-91D0-4967-8CB9-78CE32ADFD0Cbackground) #ffffcc"/> 		<text font-size="12" id="_CBDEE4D9-91D0-4967-8CB9-78CE32ADFD0Ctext_name" x="50" y="40" oryx:align="middle center" oryx:fittoelem="text_frame" stroke="black" text-anchor="middle" stroke-width="0pt" letter-spacing="-0.01px" fill="#000000" transform="rotate(0 50 40)" visibility="inherit" oryx:fontSize="12"><tspan x="50" y="40" dy="5" id="ext-gen929">sysout1</tspan></text>     <g id="_CBDEE4D9-91D0-4967-8CB9-78CE32ADFD0CmanualTask" transform="scale(0.7,0.7) translate(8,8)" display="none">     	<path oryx:anchors="top left" id="_CBDEE4D9-91D0-4967-8CB9-78CE32ADFD0Cframe" style="opacity:1;fill:none;fill-opacity:1;stroke-width:1" d="M0.5,3.751l4.083-3.25c0,0,11.166,0.083,12.083,0.083s-2.417,2.917-1.5,2.917     s11.667,0,12.584,0c1.166,1.708-0.168,3.167-0.834,3.667s0.875,1.917-1,4.417c-0.75,0.25,0.75,1.875-1.333,3.333     c-1.167,0.583,0.583,1.542-1.25,2.833c-1.167,0-20.833,0.083-20.833,0.083l-2-1.333V3.751z" stroke="#000000"/> 		<path id="_CBDEE4D9-91D0-4967-8CB9-78CE32ADFD0Cframe2" oryx:anchors="top left" style="opacity:1;fill:none;stroke-width:2" d="M 13.5 7 L 27 7" stroke="#000000"/> 		<path id="_CBDEE4D9-91D0-4967-8CB9-78CE32ADFD0Cframe3" oryx:anchors="top left" style="opacity:1;fill:none;stroke-width:2" d="M 13.5 11 L 26 11" stroke="#000000"/> 		<path id="_CBDEE4D9-91D0-4967-8CB9-78CE32ADFD0Cframe4" oryx:anchors="top left" style="opacity:1;fill:none;stroke-width:1.5" d="M 14 14.5 L 25 14.5" stroke="#000000"/> 		<path id="_CBDEE4D9-91D0-4967-8CB9-78CE32ADFD0Cframe5" oryx:anchors="top left" style="opacity:1;fill:none;stroke-width:1.5" d="M 8.2 3.1 L 15 3.1" stroke="#000000"/> 	</g> 	 	<g id="_CBDEE4D9-91D0-4967-8CB9-78CE32ADFD0CbusinessRuleTask" transform="scale(0.7,0.7) translate(8,8)" display="none"> 		<rect id="_CBDEE4D9-91D0-4967-8CB9-78CE32ADFD0Cframe6" oryx:anchors="top left" x="0" y="0" width="22" height="4" style="opacity:1;fill:#B3B1B3;fill-opacity:1;" stroke="#000000"/> 		<rect id="_CBDEE4D9-91D0-4967-8CB9-78CE32ADFD0Cframe7" oryx:anchors="top left" x="0" y="4" style="opacity:1;fill:none;" width="22" height="12" stroke="#000000"/> 		<path id="_CBDEE4D9-91D0-4967-8CB9-78CE32ADFD0Cframe8" oryx:anchors="top left" style="opacity:1;fill:none;" d="M 0 10 L 22 10" stroke="#000000"/> 		<path id="_CBDEE4D9-91D0-4967-8CB9-78CE32ADFD0Cframe9" oryx:anchors="top left" style="opacity:1; fill:none;" d="M 7 4 L 7 16" stroke="#000000"/> 	</g> 	 	<g id="_CBDEE4D9-91D0-4967-8CB9-78CE32ADFD0CscriptTask" transform="scale(0.7,0.7) translate(8,8)" display="inherit"> 		<path oryx:anchors="top left" id="_CBDEE4D9-91D0-4967-8CB9-78CE32ADFD0Cframe10" style="opacity:1;fill:none;" stroke="#000000" d="M6.402,0.5h14.5c0,0-5.833,2.833-5.833,5.583s4.417,6,4.417,9.167    s-4.167,5.083-4.167,5.083H0.235c0,0,5-2.667,5-5s-4.583-6.75-4.583-9.25S6.402,0.5,6.402,0.5z"/> 		<path oryx:anchors="top left" id="_CBDEE4D9-91D0-4967-8CB9-78CE32ADFD0Cframe11" style="opacity:1;fill:none;stroke-width:1.5" d="M 3.5 4.5 L 13.5 4.5" stroke="#000000"/> 		<path oryx:anchors="top left" id="_CBDEE4D9-91D0-4967-8CB9-78CE32ADFD0Cframe12" style="opacity:1;fill:none;stroke-width:1.5" d="M 3.8 8.5 L 13.8 8.5" stroke="#000000"/> 		<path oryx:anchors="top left" id="_CBDEE4D9-91D0-4967-8CB9-78CE32ADFD0Cframe13" style="opacity:1;fill:none;stroke-width:1.5" d="M 6.3 12.5 L 16.3 12.5" stroke="#000000"/> 		<path oryx:anchors="top left" id="_CBDEE4D9-91D0-4967-8CB9-78CE32ADFD0Cframe14" style="opacity:1;fill:none;stroke-width:1.5" d="M 6.5 16.5 L 16.5 16.5" stroke="#000000"/> 	</g> 	 	<g id="_CBDEE4D9-91D0-4967-8CB9-78CE32ADFD0CuserTask" transform="scale(0.7,0.7) translate(8,8)" display="none"> 		<path id="_CBDEE4D9-91D0-4967-8CB9-78CE32ADFD0Cframe15" oryx:anchors="top left" style="opacity:1;fill:#F4F6F7" stroke="#000000" d="M0.585,24.167h24.083v-7.833c0,0-2.333-3.917-7.083-5.167h-9.25    c-4.417,1.333-7.833,5.75-7.833,5.75L0.585,24.167z"/> 		<path id="_CBDEE4D9-91D0-4967-8CB9-78CE32ADFD0Cframe16" oryx:anchors="top left" style="opacity:1;fill:none" d="M 6 20 L 6 24" stroke="#000000"/> 		<path id="_CBDEE4D9-91D0-4967-8CB9-78CE32ADFD0Cframe17" oryx:anchors="top left" style="opacity:1;fill:none" d="M 20 20 L 20 24" stroke="#000000"/> 		<circle id="_CBDEE4D9-91D0-4967-8CB9-78CE32ADFD0Cframe18" oryx:anchors="top left" fill="black" cx="13.002" cy="5.916" r="5.417" stroke="#000000"/> 		<path id="_CBDEE4D9-91D0-4967-8CB9-78CE32ADFD0Cframe19" oryx:anchors="top left" style="opacity:1;fill:#F0EFF0;" stroke="#000000" d="M8.043,7.083c0,0,2.814-2.426,5.376-1.807s4.624-0.693,4.624-0.693    c0.25,1.688,0.042,3.75-1.458,5.584c0,0,1.083,0.75,1.083,1.5s0.125,1.875-1,3s-5.5,1.25-6.75,0S8.668,12.834,8.668,12    s0.583-1.25,1.25-1.917C8.835,9.5,7.419,7.708,8.043,7.083z"/> 	</g> 	 	<g id="_CBDEE4D9-91D0-4967-8CB9-78CE32ADFD0CserviceTask" transform="scale(0.7,0.7) translate(8,8)" display="none"> 		<polygon oryx:anchors="top left" id="_CBDEE4D9-91D0-4967-8CB9-78CE32ADFD0Cframe20" style="opacity:1;fill:#ffffff" stroke="#000000" points="15.392,5.064 17.954,2.502 20.347,4.895 17.786,7.455     18.729,9.732 22.353,9.732 22.353,13.115 18.731,13.115 17.788,15.392 20.351,17.955 17.958,20.347 15.397,17.786 13.12,18.729     13.12,22.353 9.737,22.353 9.737,18.731 7.46,17.788 4.897,20.35 2.506,17.958 5.066,15.397 4.124,13.12 0.5,13.12 0.5,9.737     4.121,9.737 5.065,7.461 2.503,4.898 4.895,2.506 7.455,5.066 9.732,4.125 9.732,0.5 13.116,0.5 13.116,4.121 "/> 		<circle oryx:anchors="top left" id="_CBDEE4D9-91D0-4967-8CB9-78CE32ADFD0Cframe21" style="opacity:1;fill:none" stroke="#000000" cx="11.427" cy="11.426" r="3.714"/> 		<polygon oryx:anchors="top left" id="_CBDEE4D9-91D0-4967-8CB9-78CE32ADFD0Cframe22" style="opacity:1;fill:#ffffff" stroke="#000000" points="21.392,11.064 23.954,8.502 26.347,10.895 23.786,13.455     24.729,15.732 28.353,15.732 28.353,19.115 24.731,19.115 23.788,21.392 26.351,23.955 23.958,26.347 21.397,23.786 19.12,24.729     19.12,28.353 15.737,28.353 15.737,24.731 13.46,23.788 10.897,26.35 8.506,23.958 11.066,21.397 10.124,19.12 6.5,19.12     6.5,15.737 10.121,15.737 11.065,13.461 8.503,10.898 10.895,8.506 13.455,11.066 15.732,10.125 15.732,6.5 19.116,6.5     19.116,10.121 "/> 		<circle oryx:anchors="top left" id="_CBDEE4D9-91D0-4967-8CB9-78CE32ADFD0Cframe23" style="opacity:1;fill:none;" stroke="#000000" cx="17.427" cy="17.426" r="3.714"/> 	</g> 	 	<g id="_CBDEE4D9-91D0-4967-8CB9-78CE32ADFD0CsendTask" display="none"> 		<path id="_CBDEE4D9-91D0-4967-8CB9-78CE32ADFD0Cstframe24" oryx:anchors="left top" stroke="#FFFFFF" fill="black" stroke-width="1" d="M8,11 L8,21 L24,21 L24,11 L16,17z"/> 		<path id="_CBDEE4D9-91D0-4967-8CB9-78CE32ADFD0Cstframe25" oryx:anchors="left top" stroke="#FFFFFF" fill="black" stroke-width="1" d="M7,10 L16,17 L25 10z"/> 	</g> 	 	<g id="_CBDEE4D9-91D0-4967-8CB9-78CE32ADFD0CreceiveTask" display="none"> 		<path id="_CBDEE4D9-91D0-4967-8CB9-78CE32ADFD0Cframe26" oryx:anchors="left top" stroke="#000000" fill="none" stroke-width="1" d="M8,11 L8,21 L24,21 L24,11z M8,11 L16,17 L24,11"/> 	</g> 	 	<g id="_CBDEE4D9-91D0-4967-8CB9-78CE32ADFD0Cnone" display="none"/>  	<g id="_CBDEE4D9-91D0-4967-8CB9-78CE32ADFD0Csequential" display="none">         <path oryx:anchors="bottom" fill="none" stroke="#000000" stroke-width="2" d="M46,76h10M46,72h10 M46,68h10" id="_CBDEE4D9-91D0-4967-8CB9-78CE32ADFD0C__CBDEE4D9-91D0-4967-8CB9-78CE32ADFD0C_20"/>     </g>   </g></g><g class="children" style="overflow:hidden"/><g class="edge"/></g><g class="controls"><g class="dockers"/><g class="magnets" transform="translate(195, 140)"><g pointer-events="all" display="none" transform="translate(-7, 12)"><circle cx="8" cy="8" r="4" stroke="none" fill="red" fill-opacity="0.3"/></g><g pointer-events="all" display="none" transform="translate(-7, 32)"><circle cx="8" cy="8" r="4" stroke="none" fill="red" fill-opacity="0.3"/></g><g pointer-events="all" display="none" transform="translate(-7, 52)"><circle cx="8" cy="8" r="4" stroke="none" fill="red" fill-opacity="0.3"/></g><g pointer-events="all" display="none" transform="translate(17, 71)"><circle cx="8" cy="8" r="4" stroke="none" fill="red" fill-opacity="0.3"/></g><g pointer-events="all" display="none" transform="translate(42, 71)"><circle cx="8" cy="8" r="4" stroke="none" fill="red" fill-opacity="0.3"/></g><g pointer-events="all" display="none" transform="translate(67, 71)"><circle cx="8" cy="8" r="4" stroke="none" fill="red" fill-opacity="0.3"/></g><g pointer-events="all" display="none" transform="translate(91, 12)"><circle cx="8" cy="8" r="4" stroke="none" fill="red" fill-opacity="0.3"/></g><g pointer-events="all" display="none" transform="translate(91, 32)"><circle cx="8" cy="8" r="4" stroke="none" fill="red" fill-opacity="0.3"/></g><g pointer-events="all" display="none" transform="translate(91, 52)"><circle cx="8" cy="8" r="4" stroke="none" fill="red" fill-opacity="0.3"/></g><g pointer-events="all" display="none" transform="translate(17, -7)"><circle cx="8" cy="8" r="4" stroke="none" fill="red" fill-opacity="0.3"/></g><g pointer-events="all" display="none" transform="translate(42, -7)"><circle cx="8" cy="8" r="4" stroke="none" fill="red" fill-opacity="0.3"/></g><g pointer-events="all" display="none" transform="translate(67, -7)"><circle cx="8" cy="8" r="4" stroke="none" fill="red" fill-opacity="0.3"/></g><g pointer-events="all" display="none" transform="translate(42, 32)"><circle cx="8" cy="8" r="4" stroke="none" fill="red" fill-opacity="0.3"/></g></g></g></g><g id="_75680EBF-C5E2-4388-96F1-105575559216" bpmn2nodeid="_84F1E8C6-FDE7-4B1A-8CA9-78BB92C58013"><g class="stencils" transform="translate(340, 140)"><g class="me"><g pointer-events="fill" oryx:minimumSize="50 40" id="_75680EBF-C5E2-4388-96F1-105575559216">   	<defs id="_75680EBF-C5E2-4388-96F1-105575559216__75680EBF-C5E2-4388-96F1-105575559216_17"> 		<radialGradient id="_75680EBF-C5E2-4388-96F1-105575559216background" cx="10%" cy="10%" r="100%" fx="10%" fy="10%"> 			<stop offset="0%" stop-color="#ffffff" stop-opacity="1" id="_75680EBF-C5E2-4388-96F1-105575559216__75680EBF-C5E2-4388-96F1-105575559216_18"/> 			<stop id="_75680EBF-C5E2-4388-96F1-105575559216fill_el" offset="100%" stop-color="#fafad2" stop-opacity="1"/> 		</radialGradient> 		<radialGradient id="_75680EBF-C5E2-4388-96F1-105575559216borderbackground" cx="10%" cy="10%" r="100%" fx="10%" fy="10%"> 			<stop offset="0%" stop-color="#ffffff" stop-opacity="1" id="_75680EBF-C5E2-4388-96F1-105575559216__75680EBF-C5E2-4388-96F1-105575559216_19"/> 			<stop id="_75680EBF-C5E2-4388-96F1-105575559216fill_border" offset="100%" stop-color="#000000" stop-opacity="1" stroke="#000000"/> 		</radialGradient> 	</defs> 	 	<rect id="_75680EBF-C5E2-4388-96F1-105575559216text_frame" oryx:anchors="bottom top right left" x="1" y="1" width="94" height="79" rx="10" ry="10" stroke="none" stroke-width="0" fill="none"/> 	<rect id="_75680EBF-C5E2-4388-96F1-105575559216bg_frame" oryx:resize="vertical horizontal" x="0" y="0" width="100" height="80" rx="10" ry="10" stroke="#000000" stroke-width="1" fill="url(#_75680EBF-C5E2-4388-96F1-105575559216background) #ffffcc"/> 		<text font-size="12" id="_75680EBF-C5E2-4388-96F1-105575559216text_name" x="50" y="40" oryx:align="middle center" oryx:fittoelem="text_frame" stroke="black" text-anchor="middle" stroke-width="0pt" letter-spacing="-0.01px" fill="#000000" transform="rotate(0 50 40)" visibility="inherit" oryx:fontSize="12"><tspan x="50" y="40" dy="5" id="ext-gen1217">usertask</tspan></text>     <g id="_75680EBF-C5E2-4388-96F1-105575559216manualTask" transform="scale(0.7,0.7) translate(8,8)" display="none">     	<path oryx:anchors="top left" id="_75680EBF-C5E2-4388-96F1-105575559216frame" style="opacity:1;fill:none;fill-opacity:1;stroke-width:1" d="M0.5,3.751l4.083-3.25c0,0,11.166,0.083,12.083,0.083s-2.417,2.917-1.5,2.917     s11.667,0,12.584,0c1.166,1.708-0.168,3.167-0.834,3.667s0.875,1.917-1,4.417c-0.75,0.25,0.75,1.875-1.333,3.333     c-1.167,0.583,0.583,1.542-1.25,2.833c-1.167,0-20.833,0.083-20.833,0.083l-2-1.333V3.751z" stroke="#000000"/> 		<path id="_75680EBF-C5E2-4388-96F1-105575559216frame2" oryx:anchors="top left" style="opacity:1;fill:none;stroke-width:2" d="M 13.5 7 L 27 7" stroke="#000000"/> 		<path id="_75680EBF-C5E2-4388-96F1-105575559216frame3" oryx:anchors="top left" style="opacity:1;fill:none;stroke-width:2" d="M 13.5 11 L 26 11" stroke="#000000"/> 		<path id="_75680EBF-C5E2-4388-96F1-105575559216frame4" oryx:anchors="top left" style="opacity:1;fill:none;stroke-width:1.5" d="M 14 14.5 L 25 14.5" stroke="#000000"/> 		<path id="_75680EBF-C5E2-4388-96F1-105575559216frame5" oryx:anchors="top left" style="opacity:1;fill:none;stroke-width:1.5" d="M 8.2 3.1 L 15 3.1" stroke="#000000"/> 	</g> 	 	<g id="_75680EBF-C5E2-4388-96F1-105575559216businessRuleTask" transform="scale(0.7,0.7) translate(8,8)" display="none"> 		<rect id="_75680EBF-C5E2-4388-96F1-105575559216frame6" oryx:anchors="top left" x="0" y="0" width="22" height="4" style="opacity:1;fill:#B3B1B3;fill-opacity:1;" stroke="#000000"/> 		<rect id="_75680EBF-C5E2-4388-96F1-105575559216frame7" oryx:anchors="top left" x="0" y="4" style="opacity:1;fill:none;" width="22" height="12" stroke="#000000"/> 		<path id="_75680EBF-C5E2-4388-96F1-105575559216frame8" oryx:anchors="top left" style="opacity:1;fill:none;" d="M 0 10 L 22 10" stroke="#000000"/> 		<path id="_75680EBF-C5E2-4388-96F1-105575559216frame9" oryx:anchors="top left" style="opacity:1; fill:none;" d="M 7 4 L 7 16" stroke="#000000"/> 	</g> 	 	<g id="_75680EBF-C5E2-4388-96F1-105575559216scriptTask" transform="scale(0.7,0.7) translate(8,8)" display="none"> 		<path oryx:anchors="top left" id="_75680EBF-C5E2-4388-96F1-105575559216frame10" style="opacity:1;fill:none;" stroke="#000000" d="M6.402,0.5h14.5c0,0-5.833,2.833-5.833,5.583s4.417,6,4.417,9.167    s-4.167,5.083-4.167,5.083H0.235c0,0,5-2.667,5-5s-4.583-6.75-4.583-9.25S6.402,0.5,6.402,0.5z"/> 		<path oryx:anchors="top left" id="_75680EBF-C5E2-4388-96F1-105575559216frame11" style="opacity:1;fill:none;stroke-width:1.5" d="M 3.5 4.5 L 13.5 4.5" stroke="#000000"/> 		<path oryx:anchors="top left" id="_75680EBF-C5E2-4388-96F1-105575559216frame12" style="opacity:1;fill:none;stroke-width:1.5" d="M 3.8 8.5 L 13.8 8.5" stroke="#000000"/> 		<path oryx:anchors="top left" id="_75680EBF-C5E2-4388-96F1-105575559216frame13" style="opacity:1;fill:none;stroke-width:1.5" d="M 6.3 12.5 L 16.3 12.5" stroke="#000000"/> 		<path oryx:anchors="top left" id="_75680EBF-C5E2-4388-96F1-105575559216frame14" style="opacity:1;fill:none;stroke-width:1.5" d="M 6.5 16.5 L 16.5 16.5" stroke="#000000"/> 	</g> 	 	<g id="_75680EBF-C5E2-4388-96F1-105575559216userTask" transform="scale(0.7,0.7) translate(8,8)" display="inherit"> 		<path id="_75680EBF-C5E2-4388-96F1-105575559216frame15" oryx:anchors="top left" style="opacity:1;fill:#F4F6F7" stroke="#000000" d="M0.585,24.167h24.083v-7.833c0,0-2.333-3.917-7.083-5.167h-9.25    c-4.417,1.333-7.833,5.75-7.833,5.75L0.585,24.167z"/> 		<path id="_75680EBF-C5E2-4388-96F1-105575559216frame16" oryx:anchors="top left" style="opacity:1;fill:none" d="M 6 20 L 6 24" stroke="#000000"/> 		<path id="_75680EBF-C5E2-4388-96F1-105575559216frame17" oryx:anchors="top left" style="opacity:1;fill:none" d="M 20 20 L 20 24" stroke="#000000"/> 		<circle id="_75680EBF-C5E2-4388-96F1-105575559216frame18" oryx:anchors="top left" fill="black" cx="13.002" cy="5.916" r="5.417" stroke="#000000"/> 		<path id="_75680EBF-C5E2-4388-96F1-105575559216frame19" oryx:anchors="top left" style="opacity:1;fill:#F0EFF0;" stroke="#000000" d="M8.043,7.083c0,0,2.814-2.426,5.376-1.807s4.624-0.693,4.624-0.693    c0.25,1.688,0.042,3.75-1.458,5.584c0,0,1.083,0.75,1.083,1.5s0.125,1.875-1,3s-5.5,1.25-6.75,0S8.668,12.834,8.668,12    s0.583-1.25,1.25-1.917C8.835,9.5,7.419,7.708,8.043,7.083z"/> 	</g> 	 	<g id="_75680EBF-C5E2-4388-96F1-105575559216serviceTask" transform="scale(0.7,0.7) translate(8,8)" display="none"> 		<polygon oryx:anchors="top left" id="_75680EBF-C5E2-4388-96F1-105575559216frame20" style="opacity:1;fill:#ffffff" stroke="#000000" points="15.392,5.064 17.954,2.502 20.347,4.895 17.786,7.455     18.729,9.732 22.353,9.732 22.353,13.115 18.731,13.115 17.788,15.392 20.351,17.955 17.958,20.347 15.397,17.786 13.12,18.729     13.12,22.353 9.737,22.353 9.737,18.731 7.46,17.788 4.897,20.35 2.506,17.958 5.066,15.397 4.124,13.12 0.5,13.12 0.5,9.737     4.121,9.737 5.065,7.461 2.503,4.898 4.895,2.506 7.455,5.066 9.732,4.125 9.732,0.5 13.116,0.5 13.116,4.121 "/> 		<circle oryx:anchors="top left" id="_75680EBF-C5E2-4388-96F1-105575559216frame21" style="opacity:1;fill:none" stroke="#000000" cx="11.427" cy="11.426" r="3.714"/> 		<polygon oryx:anchors="top left" id="_75680EBF-C5E2-4388-96F1-105575559216frame22" style="opacity:1;fill:#ffffff" stroke="#000000" points="21.392,11.064 23.954,8.502 26.347,10.895 23.786,13.455     24.729,15.732 28.353,15.732 28.353,19.115 24.731,19.115 23.788,21.392 26.351,23.955 23.958,26.347 21.397,23.786 19.12,24.729     19.12,28.353 15.737,28.353 15.737,24.731 13.46,23.788 10.897,26.35 8.506,23.958 11.066,21.397 10.124,19.12 6.5,19.12     6.5,15.737 10.121,15.737 11.065,13.461 8.503,10.898 10.895,8.506 13.455,11.066 15.732,10.125 15.732,6.5 19.116,6.5     19.116,10.121 "/> 		<circle oryx:anchors="top left" id="_75680EBF-C5E2-4388-96F1-105575559216frame23" style="opacity:1;fill:none;" stroke="#000000" cx="17.427" cy="17.426" r="3.714"/> 	</g> 	 	<g id="_75680EBF-C5E2-4388-96F1-105575559216sendTask" display="none"> 		<path id="_75680EBF-C5E2-4388-96F1-105575559216stframe24" oryx:anchors="left top" stroke="#FFFFFF" fill="black" stroke-width="1" d="M8,11 L8,21 L24,21 L24,11 L16,17z"/> 		<path id="_75680EBF-C5E2-4388-96F1-105575559216stframe25" oryx:anchors="left top" stroke="#FFFFFF" fill="black" stroke-width="1" d="M7,10 L16,17 L25 10z"/> 	</g> 	 	<g id="_75680EBF-C5E2-4388-96F1-105575559216receiveTask" display="none"> 		<path id="_75680EBF-C5E2-4388-96F1-105575559216frame26" oryx:anchors="left top" stroke="#000000" fill="none" stroke-width="1" d="M8,11 L8,21 L24,21 L24,11z M8,11 L16,17 L24,11"/> 	</g> 	 	<g id="_75680EBF-C5E2-4388-96F1-105575559216none" display="none"/>  	<g id="_75680EBF-C5E2-4388-96F1-105575559216sequential" display="none">         <path oryx:anchors="bottom" fill="none" stroke="#000000" stroke-width="2" d="M46,76h10M46,72h10 M46,68h10" id="_75680EBF-C5E2-4388-96F1-105575559216__75680EBF-C5E2-4388-96F1-105575559216_20"/>     </g>   </g></g><g class="children" style="overflow:hidden"/><g class="edge"/></g><g class="controls"><g class="dockers"/><g class="magnets" transform="translate(340, 140)"><g pointer-events="all" display="none" transform="translate(-7, 12)"><circle cx="8" cy="8" r="4" stroke="none" fill="red" fill-opacity="0.3"/></g><g pointer-events="all" display="none" transform="translate(-7, 32)"><circle cx="8" cy="8" r="4" stroke="none" fill="red" fill-opacity="0.3"/></g><g pointer-events="all" display="none" transform="translate(-7, 52)"><circle cx="8" cy="8" r="4" stroke="none" fill="red" fill-opacity="0.3"/></g><g pointer-events="all" display="none" transform="translate(17, 71)"><circle cx="8" cy="8" r="4" stroke="none" fill="red" fill-opacity="0.3"/></g><g pointer-events="all" display="none" transform="translate(42, 71)"><circle cx="8" cy="8" r="4" stroke="none" fill="red" fill-opacity="0.3"/></g><g pointer-events="all" display="none" transform="translate(67, 71)"><circle cx="8" cy="8" r="4" stroke="none" fill="red" fill-opacity="0.3"/></g><g pointer-events="all" display="none" transform="translate(91, 12)"><circle cx="8" cy="8" r="4" stroke="none" fill="red" fill-opacity="0.3"/></g><g pointer-events="all" display="none" transform="translate(91, 32)"><circle cx="8" cy="8" r="4" stroke="none" fill="red" fill-opacity="0.3"/></g><g pointer-events="all" display="none" transform="translate(91, 52)"><circle cx="8" cy="8" r="4" stroke="none" fill="red" fill-opacity="0.3"/></g><g pointer-events="all" display="none" transform="translate(17, -7)"><circle cx="8" cy="8" r="4" stroke="none" fill="red" fill-opacity="0.3"/></g><g pointer-events="all" display="none" transform="translate(42, -7)"><circle cx="8" cy="8" r="4" stroke="none" fill="red" fill-opacity="0.3"/></g><g pointer-events="all" display="none" transform="translate(67, -7)"><circle cx="8" cy="8" r="4" stroke="none" fill="red" fill-opacity="0.3"/></g><g pointer-events="all" display="none" transform="translate(42, 32)"><circle cx="8" cy="8" r="4" stroke="none" fill="red" fill-opacity="0.3"/></g></g></g></g><g id="_809BFB0D-FCF7-4B5D-BF86-EBBA778001D6" bpmn2nodeid="_63D7087F-7E59-481B-A858-8146481BCE68"><g class="stencils" transform="translate(485, 140)"><g class="me"><g pointer-events="fill" oryx:minimumSize="50 40" id="_809BFB0D-FCF7-4B5D-BF86-EBBA778001D6">   	<defs id="_809BFB0D-FCF7-4B5D-BF86-EBBA778001D6__809BFB0D-FCF7-4B5D-BF86-EBBA778001D6_17"> 		<radialGradient id="_809BFB0D-FCF7-4B5D-BF86-EBBA778001D6background" cx="10%" cy="10%" r="100%" fx="10%" fy="10%"> 			<stop offset="0%" stop-color="#ffffff" stop-opacity="1" id="_809BFB0D-FCF7-4B5D-BF86-EBBA778001D6__809BFB0D-FCF7-4B5D-BF86-EBBA778001D6_18"/> 			<stop id="_809BFB0D-FCF7-4B5D-BF86-EBBA778001D6fill_el" offset="100%" stop-color="#fafad2" stop-opacity="1"/> 		</radialGradient> 		<radialGradient id="_809BFB0D-FCF7-4B5D-BF86-EBBA778001D6borderbackground" cx="10%" cy="10%" r="100%" fx="10%" fy="10%"> 			<stop offset="0%" stop-color="#ffffff" stop-opacity="1" id="_809BFB0D-FCF7-4B5D-BF86-EBBA778001D6__809BFB0D-FCF7-4B5D-BF86-EBBA778001D6_19"/> 			<stop id="_809BFB0D-FCF7-4B5D-BF86-EBBA778001D6fill_border" offset="100%" stop-color="#000000" stop-opacity="1" stroke="#000000"/> 		</radialGradient> 	</defs> 	 	<rect id="_809BFB0D-FCF7-4B5D-BF86-EBBA778001D6text_frame" oryx:anchors="bottom top right left" x="1" y="1" width="94" height="79" rx="10" ry="10" stroke="none" stroke-width="0" fill="none"/> 	<rect id="_809BFB0D-FCF7-4B5D-BF86-EBBA778001D6bg_frame" oryx:resize="vertical horizontal" x="0" y="0" width="100" height="80" rx="10" ry="10" stroke="#000000" stroke-width="1" fill="url(#_809BFB0D-FCF7-4B5D-BF86-EBBA778001D6background) #ffffcc"/> 		<text font-size="12" id="_809BFB0D-FCF7-4B5D-BF86-EBBA778001D6text_name" x="50" y="40" oryx:align="middle center" oryx:fittoelem="text_frame" stroke="black" text-anchor="middle" stroke-width="0pt" letter-spacing="-0.01px" fill="#000000" transform="rotate(0 50 40)" visibility="inherit" oryx:fontSize="12"><tspan x="50" y="40" dy="5" id="ext-gen1064">sysout2</tspan></text>     <g id="_809BFB0D-FCF7-4B5D-BF86-EBBA778001D6manualTask" transform="scale(0.7,0.7) translate(8,8)" display="none">     	<path oryx:anchors="top left" id="_809BFB0D-FCF7-4B5D-BF86-EBBA778001D6frame" style="opacity:1;fill:none;fill-opacity:1;stroke-width:1" d="M0.5,3.751l4.083-3.25c0,0,11.166,0.083,12.083,0.083s-2.417,2.917-1.5,2.917     s11.667,0,12.584,0c1.166,1.708-0.168,3.167-0.834,3.667s0.875,1.917-1,4.417c-0.75,0.25,0.75,1.875-1.333,3.333     c-1.167,0.583,0.583,1.542-1.25,2.833c-1.167,0-20.833,0.083-20.833,0.083l-2-1.333V3.751z" stroke="#000000"/> 		<path id="_809BFB0D-FCF7-4B5D-BF86-EBBA778001D6frame2" oryx:anchors="top left" style="opacity:1;fill:none;stroke-width:2" d="M 13.5 7 L 27 7" stroke="#000000"/> 		<path id="_809BFB0D-FCF7-4B5D-BF86-EBBA778001D6frame3" oryx:anchors="top left" style="opacity:1;fill:none;stroke-width:2" d="M 13.5 11 L 26 11" stroke="#000000"/> 		<path id="_809BFB0D-FCF7-4B5D-BF86-EBBA778001D6frame4" oryx:anchors="top left" style="opacity:1;fill:none;stroke-width:1.5" d="M 14 14.5 L 25 14.5" stroke="#000000"/> 		<path id="_809BFB0D-FCF7-4B5D-BF86-EBBA778001D6frame5" oryx:anchors="top left" style="opacity:1;fill:none;stroke-width:1.5" d="M 8.2 3.1 L 15 3.1" stroke="#000000"/> 	</g> 	 	<g id="_809BFB0D-FCF7-4B5D-BF86-EBBA778001D6businessRuleTask" transform="scale(0.7,0.7) translate(8,8)" display="none"> 		<rect id="_809BFB0D-FCF7-4B5D-BF86-EBBA778001D6frame6" oryx:anchors="top left" x="0" y="0" width="22" height="4" style="opacity:1;fill:#B3B1B3;fill-opacity:1;" stroke="#000000"/> 		<rect id="_809BFB0D-FCF7-4B5D-BF86-EBBA778001D6frame7" oryx:anchors="top left" x="0" y="4" style="opacity:1;fill:none;" width="22" height="12" stroke="#000000"/> 		<path id="_809BFB0D-FCF7-4B5D-BF86-EBBA778001D6frame8" oryx:anchors="top left" style="opacity:1;fill:none;" d="M 0 10 L 22 10" stroke="#000000"/> 		<path id="_809BFB0D-FCF7-4B5D-BF86-EBBA778001D6frame9" oryx:anchors="top left" style="opacity:1; fill:none;" d="M 7 4 L 7 16" stroke="#000000"/> 	</g> 	 	<g id="_809BFB0D-FCF7-4B5D-BF86-EBBA778001D6scriptTask" transform="scale(0.7,0.7) translate(8,8)" display="inherit"> 		<path oryx:anchors="top left" id="_809BFB0D-FCF7-4B5D-BF86-EBBA778001D6frame10" style="opacity:1;fill:none;" stroke="#000000" d="M6.402,0.5h14.5c0,0-5.833,2.833-5.833,5.583s4.417,6,4.417,9.167    s-4.167,5.083-4.167,5.083H0.235c0,0,5-2.667,5-5s-4.583-6.75-4.583-9.25S6.402,0.5,6.402,0.5z"/> 		<path oryx:anchors="top left" id="_809BFB0D-FCF7-4B5D-BF86-EBBA778001D6frame11" style="opacity:1;fill:none;stroke-width:1.5" d="M 3.5 4.5 L 13.5 4.5" stroke="#000000"/> 		<path oryx:anchors="top left" id="_809BFB0D-FCF7-4B5D-BF86-EBBA778001D6frame12" style="opacity:1;fill:none;stroke-width:1.5" d="M 3.8 8.5 L 13.8 8.5" stroke="#000000"/> 		<path oryx:anchors="top left" id="_809BFB0D-FCF7-4B5D-BF86-EBBA778001D6frame13" style="opacity:1;fill:none;stroke-width:1.5" d="M 6.3 12.5 L 16.3 12.5" stroke="#000000"/> 		<path oryx:anchors="top left" id="_809BFB0D-FCF7-4B5D-BF86-EBBA778001D6frame14" style="opacity:1;fill:none;stroke-width:1.5" d="M 6.5 16.5 L 16.5 16.5" stroke="#000000"/> 	</g> 	 	<g id="_809BFB0D-FCF7-4B5D-BF86-EBBA778001D6userTask" transform="scale(0.7,0.7) translate(8,8)" display="none"> 		<path id="_809BFB0D-FCF7-4B5D-BF86-EBBA778001D6frame15" oryx:anchors="top left" style="opacity:1;fill:#F4F6F7" stroke="#000000" d="M0.585,24.167h24.083v-7.833c0,0-2.333-3.917-7.083-5.167h-9.25    c-4.417,1.333-7.833,5.75-7.833,5.75L0.585,24.167z"/> 		<path id="_809BFB0D-FCF7-4B5D-BF86-EBBA778001D6frame16" oryx:anchors="top left" style="opacity:1;fill:none" d="M 6 20 L 6 24" stroke="#000000"/> 		<path id="_809BFB0D-FCF7-4B5D-BF86-EBBA778001D6frame17" oryx:anchors="top left" style="opacity:1;fill:none" d="M 20 20 L 20 24" stroke="#000000"/> 		<circle id="_809BFB0D-FCF7-4B5D-BF86-EBBA778001D6frame18" oryx:anchors="top left" fill="black" cx="13.002" cy="5.916" r="5.417" stroke="#000000"/> 		<path id="_809BFB0D-FCF7-4B5D-BF86-EBBA778001D6frame19" oryx:anchors="top left" style="opacity:1;fill:#F0EFF0;" stroke="#000000" d="M8.043,7.083c0,0,2.814-2.426,5.376-1.807s4.624-0.693,4.624-0.693    c0.25,1.688,0.042,3.75-1.458,5.584c0,0,1.083,0.75,1.083,1.5s0.125,1.875-1,3s-5.5,1.25-6.75,0S8.668,12.834,8.668,12    s0.583-1.25,1.25-1.917C8.835,9.5,7.419,7.708,8.043,7.083z"/> 	</g> 	 	<g id="_809BFB0D-FCF7-4B5D-BF86-EBBA778001D6serviceTask" transform="scale(0.7,0.7) translate(8,8)" display="none"> 		<polygon oryx:anchors="top left" id="_809BFB0D-FCF7-4B5D-BF86-EBBA778001D6frame20" style="opacity:1;fill:#ffffff" stroke="#000000" points="15.392,5.064 17.954,2.502 20.347,4.895 17.786,7.455     18.729,9.732 22.353,9.732 22.353,13.115 18.731,13.115 17.788,15.392 20.351,17.955 17.958,20.347 15.397,17.786 13.12,18.729     13.12,22.353 9.737,22.353 9.737,18.731 7.46,17.788 4.897,20.35 2.506,17.958 5.066,15.397 4.124,13.12 0.5,13.12 0.5,9.737     4.121,9.737 5.065,7.461 2.503,4.898 4.895,2.506 7.455,5.066 9.732,4.125 9.732,0.5 13.116,0.5 13.116,4.121 "/> 		<circle oryx:anchors="top left" id="_809BFB0D-FCF7-4B5D-BF86-EBBA778001D6frame21" style="opacity:1;fill:none" stroke="#000000" cx="11.427" cy="11.426" r="3.714"/> 		<polygon oryx:anchors="top left" id="_809BFB0D-FCF7-4B5D-BF86-EBBA778001D6frame22" style="opacity:1;fill:#ffffff" stroke="#000000" points="21.392,11.064 23.954,8.502 26.347,10.895 23.786,13.455     24.729,15.732 28.353,15.732 28.353,19.115 24.731,19.115 23.788,21.392 26.351,23.955 23.958,26.347 21.397,23.786 19.12,24.729     19.12,28.353 15.737,28.353 15.737,24.731 13.46,23.788 10.897,26.35 8.506,23.958 11.066,21.397 10.124,19.12 6.5,19.12     6.5,15.737 10.121,15.737 11.065,13.461 8.503,10.898 10.895,8.506 13.455,11.066 15.732,10.125 15.732,6.5 19.116,6.5     19.116,10.121 "/> 		<circle oryx:anchors="top left" id="_809BFB0D-FCF7-4B5D-BF86-EBBA778001D6frame23" style="opacity:1;fill:none;" stroke="#000000" cx="17.427" cy="17.426" r="3.714"/> 	</g> 	 	<g id="_809BFB0D-FCF7-4B5D-BF86-EBBA778001D6sendTask" display="none"> 		<path id="_809BFB0D-FCF7-4B5D-BF86-EBBA778001D6stframe24" oryx:anchors="left top" stroke="#FFFFFF" fill="black" stroke-width="1" d="M8,11 L8,21 L24,21 L24,11 L16,17z"/> 		<path id="_809BFB0D-FCF7-4B5D-BF86-EBBA778001D6stframe25" oryx:anchors="left top" stroke="#FFFFFF" fill="black" stroke-width="1" d="M7,10 L16,17 L25 10z"/> 	</g> 	 	<g id="_809BFB0D-FCF7-4B5D-BF86-EBBA778001D6receiveTask" display="none"> 		<path id="_809BFB0D-FCF7-4B5D-BF86-EBBA778001D6frame26" oryx:anchors="left top" stroke="#000000" fill="none" stroke-width="1" d="M8,11 L8,21 L24,21 L24,11z M8,11 L16,17 L24,11"/> 	</g> 	 	<g id="_809BFB0D-FCF7-4B5D-BF86-EBBA778001D6none" display="none"/>  	<g id="_809BFB0D-FCF7-4B5D-BF86-EBBA778001D6sequential" display="none">         <path oryx:anchors="bottom" fill="none" stroke="#000000" stroke-width="2" d="M46,76h10M46,72h10 M46,68h10" id="_809BFB0D-FCF7-4B5D-BF86-EBBA778001D6__809BFB0D-FCF7-4B5D-BF86-EBBA778001D6_20"/>     </g>   </g></g><g class="children" style="overflow:hidden"/><g class="edge"/></g><g class="controls"><g class="dockers"/><g class="magnets" transform="translate(485, 140)"><g pointer-events="all" display="none" transform="translate(-7, 12)"><circle cx="8" cy="8" r="4" stroke="none" fill="red" fill-opacity="0.3"/></g><g pointer-events="all" display="none" transform="translate(-7, 32)"><circle cx="8" cy="8" r="4" stroke="none" fill="red" fill-opacity="0.3"/></g><g pointer-events="all" display="none" transform="translate(-7, 52)"><circle cx="8" cy="8" r="4" stroke="none" fill="red" fill-opacity="0.3"/></g><g pointer-events="all" display="none" transform="translate(17, 71)"><circle cx="8" cy="8" r="4" stroke="none" fill="red" fill-opacity="0.3"/></g><g pointer-events="all" display="none" transform="translate(42, 71)"><circle cx="8" cy="8" r="4" stroke="none" fill="red" fill-opacity="0.3"/></g><g pointer-events="all" display="none" transform="translate(67, 71)"><circle cx="8" cy="8" r="4" stroke="none" fill="red" fill-opacity="0.3"/></g><g pointer-events="all" display="none" transform="translate(91, 12)"><circle cx="8" cy="8" r="4" stroke="none" fill="red" fill-opacity="0.3"/></g><g pointer-events="all" display="none" transform="translate(91, 32)"><circle cx="8" cy="8" r="4" stroke="none" fill="red" fill-opacity="0.3"/></g><g pointer-events="all" display="none" transform="translate(91, 52)"><circle cx="8" cy="8" r="4" stroke="none" fill="red" fill-opacity="0.3"/></g><g pointer-events="all" display="none" transform="translate(17, -7)"><circle cx="8" cy="8" r="4" stroke="none" fill="red" fill-opacity="0.3"/></g><g pointer-events="all" display="none" transform="translate(42, -7)"><circle cx="8" cy="8" r="4" stroke="none" fill="red" fill-opacity="0.3"/></g><g pointer-events="all" display="none" transform="translate(67, -7)"><circle cx="8" cy="8" r="4" stroke="none" fill="red" fill-opacity="0.3"/></g><g pointer-events="all" display="none" transform="translate(42, 32)"><circle cx="8" cy="8" r="4" stroke="none" fill="red" fill-opacity="0.3"/></g></g></g></g><g id="_127E2D60-E26F-4171-A5CC-59E12062D5DF" bpmn2nodeid="_FE407928-E48E-4F5B-BA26-61111E56E080"><g class="stencils" transform="translate(630, 166)"><g class="me"><g pointer-events="fill" id="_127E2D60-E26F-4171-A5CC-59E12062D5DF">      <defs id="_127E2D60-E26F-4171-A5CC-59E12062D5DF__127E2D60-E26F-4171-A5CC-59E12062D5DF_5"> 		<radialGradient id="_127E2D60-E26F-4171-A5CC-59E12062D5DFbackground" cx="10%" cy="10%" r="100%" fx="10%" fy="10%"> 			<stop offset="0%" stop-color="#ffffff" stop-opacity="1" id="_127E2D60-E26F-4171-A5CC-59E12062D5DF__127E2D60-E26F-4171-A5CC-59E12062D5DF_6"/> 			<stop id="_127E2D60-E26F-4171-A5CC-59E12062D5DFfill_el" offset="100%" stop-color="#ff6347" stop-opacity="1"/> 		</radialGradient> 	</defs> 	     <circle id="_127E2D60-E26F-4171-A5CC-59E12062D5DFbg_frame" cx="14" cy="14" r="14" stroke="#000000" fill="url(#_127E2D60-E26F-4171-A5CC-59E12062D5DFbackground) white" stroke-width="3"/> 	<text font-size="11" id="_127E2D60-E26F-4171-A5CC-59E12062D5DFtext_name" x="14" y="30" oryx:align="top center" stroke="black" stroke-width="0pt" letter-spacing="-0.01px" fill="#000000" text-anchor="middle" transform="rotate(0 14 30)" visibility="inherit" oryx:fontSize="11"/>   </g></g><g class="children" style="overflow:hidden"/><g class="edge"/></g><g class="controls"><g class="dockers"/><g class="magnets" transform="translate(630, 166)"><g pointer-events="all" display="none" transform="translate(6, 6)"><circle cx="8" cy="8" r="4" stroke="none" fill="red" fill-opacity="0.3"/></g></g></g></g></g><g class="edge"><g id="_AAEA135B-B9DD-4174-AE8C-A97D31FAB9C9" bpmn2nodeid="_CEBA113C-C1B8-4785-B234-AA6EF1857290"><g class="stencils"><g class="me"><g pointer-events="painted" bpmn2nodeid="_CEBA113C-C1B8-4785-B234-AA6EF1857290"><path id="_AAEA135B-B9DD-4174-AE8C-A97D31FAB9C9_1" d="M150.609375 180L194.15625 180 " stroke="#000000" fill="none" stroke-width="2" stroke-linecap="round" stroke-linejoin="round" marker-start="url(#_AAEA135B-B9DD-4174-AE8C-A97D31FAB9C9start)" marker-end="url(#_AAEA135B-B9DD-4174-AE8C-A97D31FAB9C9end)"/></g><text id="_AAEA135B-B9DD-4174-AE8C-A97D31FAB9C9text_name" font-size="12" x="164.609375" y="166" oryx:edgePosition="startTop" stroke-width="0pt" letter-spacing="-0.01px" fill="#000000" text-anchor="start" transform="rotate(360 150.609375 180)" visibility="inherit" oryx:fontSize="12"/></g><g class="children" style="overflow:hidden"/><g class="edge"/></g><g class="controls"><g class="dockers"/><g class="magnets"/></g></g><g id="_6CF945AE-AE89-4E38-ACB8-777100D32350" bpmn2nodeid="_EE495E3D-69B4-4066-A75E-2F2C148D4576"><g class="stencils"><g class="me"><g pointer-events="painted" bpmn2nodeid="_EE495E3D-69B4-4066-A75E-2F2C148D4576"><path id="_6CF945AE-AE89-4E38-ACB8-777100D32350_1" d="M295.84375 180L339.15625 180 " stroke="#000000" fill="none" stroke-width="2" stroke-linecap="round" stroke-linejoin="round" marker-start="url(#_6CF945AE-AE89-4E38-ACB8-777100D32350start)" marker-end="url(#_6CF945AE-AE89-4E38-ACB8-777100D32350end)"/></g><text id="_6CF945AE-AE89-4E38-ACB8-777100D32350text_name" font-size="12" x="309.84375" y="166" oryx:edgePosition="startTop" stroke-width="0pt" letter-spacing="-0.01px" fill="#000000" text-anchor="start" transform="rotate(360 295.84375 180)" visibility="inherit" oryx:fontSize="12"/></g><g class="children" style="overflow:hidden"/><g class="edge"/></g><g class="controls"><g class="dockers"/><g class="magnets"/></g></g><g id="_DD51B521-6AE7-4948-A8F0-D92753EC2653" bpmn2nodeid="_A05B70E8-F510-465B-812E-1BC094FB6C5F"><g class="stencils"><g class="me"><g pointer-events="painted" bpmn2nodeid="_A05B70E8-F510-465B-812E-1BC094FB6C5F"><path id="_DD51B521-6AE7-4948-A8F0-D92753EC2653_1" d="M440.84375 180L484.15625 180 " stroke="#000000" fill="none" stroke-width="2" stroke-linecap="round" stroke-linejoin="round" marker-start="url(#_DD51B521-6AE7-4948-A8F0-D92753EC2653start)" marker-end="url(#_DD51B521-6AE7-4948-A8F0-D92753EC2653end)"/></g><text id="_DD51B521-6AE7-4948-A8F0-D92753EC2653text_name" font-size="12" x="454.84375" y="166" oryx:edgePosition="startTop" stroke-width="0pt" letter-spacing="-0.01px" fill="#000000" text-anchor="start" transform="rotate(360 440.84375 180)" visibility="inherit" oryx:fontSize="12"/></g><g class="children" style="overflow:hidden"/><g class="edge"/></g><g class="controls"><g class="dockers"/><g class="magnets"/></g></g><g id="_7AC14625-E872-4C85-9B09-E0DB3B6C2AF2" bpmn2nodeid="_4F58AF7A-9CFA-4D3F-9532-28675FE2FB3E"><g class="stencils"><g class="me"><g pointer-events="painted" bpmn2nodeid="_4F58AF7A-9CFA-4D3F-9532-28675FE2FB3E"><path id="_7AC14625-E872-4C85-9B09-E0DB3B6C2AF2_1" d="M585.390625 180L629.375 180 " stroke="#000000" fill="none" stroke-width="2" stroke-linecap="round" stroke-linejoin="round" marker-start="url(#_7AC14625-E872-4C85-9B09-E0DB3B6C2AF2start)" marker-end="url(#_7AC14625-E872-4C85-9B09-E0DB3B6C2AF2end)"/></g><text id="_7AC14625-E872-4C85-9B09-E0DB3B6C2AF2text_name" font-size="12" x="599.390625" y="166" oryx:edgePosition="startTop" stroke-width="0pt" letter-spacing="-0.01px" fill="#000000" text-anchor="start" transform="rotate(360 585.390625 180)" visibility="inherit" oryx:fontSize="12"/></g><g class="children" style="overflow:hidden"/><g class="edge"/></g><g class="controls"><g class="dockers"/><g class="magnets"/></g></g></g><text id="_3E322536-B907-468A-8525-7D72F14C3232" style="stroke-width:1;fill:rgb(177,194,214);font-family:arial;font-weight:bold" font-size="12" onclick="ORYX.Plugins.CanvasTitle.openTextualAnalysis()" onmouseover="ORYX.Plugins.CanvasTitle.addToolTip('_3E322536-B907-468A-8525-7D72F14C3232')" transform="translate(10, 20)">process1 v.1.0 (taskproject.process1)</text></g></g></svg>