<svg xmlns="http://www.w3.org/2000/svg" xmlns:oryx="http://oryx-editor.org" id="_5DE4F288-BA4A-4F30-8DE7-41EA67193FA8" width="698" height="264.65625" xmlns:xlink="http://www.w3.org/1999/xlink" xmlns:svg="http://www.w3.org/2000/svg"><defs><marker id="_97C424AD-8F6F-4F26-960D-2CAD51851AE5start" refX="1" refY="5" markerUnits="userSpaceOnUse" markerWidth="17" markerHeight="11" orient="auto" fill="#000000" stroke="#000000"> 	  		<path id="_97C424AD-8F6F-4F26-960D-2CAD51851AE5conditional" d="M 0 5 L 8 0 L 16 5 L 8 10 L 0 5" fill="white" stroke="#000000" stroke-width="1" display="none"/> 			<path id="_97C424AD-8F6F-4F26-960D-2CAD51851AE5default" d="M 5 0 L 11 10" fill="white" stroke="#000000" stroke-width="1" display="none"/> 	  	</marker><marker id="_97C424AD-8F6F-4F26-960D-2CAD51851AE5end" refX="15" refY="6" markerUnits="userSpaceOnUse" markerWidth="15" markerHeight="12" orient="auto" fill="#000000" stroke="#000000"> 	  		<path id="_97C424AD-8F6F-4F26-960D-2CAD51851AE5frame2" d="M 0 1 L 15 6 L 0 11z" fill="#000000" stroke="#000000" stroke-linejoin="round" stroke-width="2"/> 	  	</marker><marker id="_FE8FF1A8-F718-4F2B-AADB-E4FB4EE3EE59start" refX="1" refY="5" markerUnits="userSpaceOnUse" markerWidth="17" markerHeight="11" orient="auto" fill="#000000" stroke="#000000"> 	  		<path id="_FE8FF1A8-F718-4F2B-AADB-E4FB4EE3EE59conditional" d="M 0 5 L 8 0 L 16 5 L 8 10 L 0 5" fill="white" stroke="#000000" stroke-width="1" display="none"/> 			<path id="_FE8FF1A8-F718-4F2B-AADB-E4FB4EE3EE59default" d="M 5 0 L 11 10" fill="white" stroke="#000000" stroke-width="1" display="none"/> 	  	</marker><marker id="_FE8FF1A8-F718-4F2B-AADB-E4FB4EE3EE59end" refX="15" refY="6" markerUnits="userSpaceOnUse" markerWidth="15" markerHeight="12" orient="auto" fill="#000000" stroke="#000000"> 	  		<path id="_FE8FF1A8-F718-4F2B-AADB-E4FB4EE3EE59frame2" d="M 0 1 L 15 6 L 0 11z" fill="#000000" stroke="#000000" stroke-linejoin="round" stroke-width="2"/> 	  	</marker><marker id="_8818BD86-91F4-4498-8A49-1987D74D9B76start" refX="1" refY="5" markerUnits="userSpaceOnUse" markerWidth="17" markerHeight="11" orient="auto" fill="#000000" stroke="#000000"> 	  		<path id="_8818BD86-91F4-4498-8A49-1987D74D9B76conditional" d="M 0 5 L 8 0 L 16 5 L 8 10 L 0 5" fill="white" stroke="#000000" stroke-width="1" display="none"/> 			<path id="_8818BD86-91F4-4498-8A49-1987D74D9B76default" d="M 5 0 L 11 10" fill="white" stroke="#000000" stroke-width="1" display="none"/> 	  	</marker><marker id="_8818BD86-91F4-4498-8A49-1987D74D9B76end" refX="15" refY="6" markerUnits="userSpaceOnUse" markerWidth="15" markerHeight="12" orient="auto" fill="#000000" stroke="#000000"> 	  		<path id="_8818BD86-91F4-4498-8A49-1987D74D9B76frame2" d="M 0 1 L 15 6 L 0 11z" fill="#000000" stroke="#000000" stroke-linejoin="round" stroke-width="2"/> 	  	</marker><marker id="_135A0016-DA43-4FED-BE9D-9A3674A843A6start" refX="1" refY="5" markerUnits="userSpaceOnUse" markerWidth="17" markerHeight="11" orient="auto" fill="#000000" stroke="#000000"> 	  		<path id="_135A0016-DA43-4FED-BE9D-9A3674A843A6conditional" d="M 0 5 L 8 0 L 16 5 L 8 10 L 0 5" fill="white" stroke="#000000" stroke-width="1" display="none"/> 			<path id="_135A0016-DA43-4FED-BE9D-9A3674A843A6default" d="M 5 0 L 11 10" fill="white" stroke="#000000" stroke-width="1" display="none"/> 	  	</marker><marker id="_135A0016-DA43-4FED-BE9D-9A3674A843A6end" refX="15" refY="6" markerUnits="userSpaceOnUse" markerWidth="15" markerHeight="12" orient="auto" fill="#000000" stroke="#000000"> 	  		<path id="_135A0016-DA43-4FED-BE9D-9A3674A843A6frame2" d="M 0 1 L 15 6 L 0 11z" fill="#000000" stroke="#000000" stroke-linejoin="round" stroke-width="2"/> 	  	</marker></defs><g stroke="none" font-family="Verdana, sans-serif" font-size-adjust="none" font-style="normal" font-variant="normal" font-weight="normal" line-heigth="normal" font-size="12"><g class="stencils" transform="translate(15, 15.65625)"><g class="me"/><g class="children"><g id="_EF1B3D59-E6B6-4196-AF91-4FE74277B5C2" bpmn2nodeid="processStartEvent"><g class="stencils" transform="translate(120, 165)"><g class="me"><g pointer-events="fill" id="_EF1B3D59-E6B6-4196-AF91-4FE74277B5C2">        <defs id="_EF1B3D59-E6B6-4196-AF91-4FE74277B5C2__EF1B3D59-E6B6-4196-AF91-4FE74277B5C2_5"> 		<radialGradient id="_EF1B3D59-E6B6-4196-AF91-4FE74277B5C2background" cx="10%" cy="10%" r="100%" fx="10%" fy="10%"> 			<stop offset="0%" stop-color="#ffffff" stop-opacity="1" id="_EF1B3D59-E6B6-4196-AF91-4FE74277B5C2__EF1B3D59-E6B6-4196-AF91-4FE74277B5C2_6"/> 			<stop id="_EF1B3D59-E6B6-4196-AF91-4FE74277B5C2fill_el" offset="100%" stop-color="#9acd32" stop-opacity="1"/> 		</radialGradient> 	</defs> 	     <circle id="_EF1B3D59-E6B6-4196-AF91-4FE74277B5C2bg_frame" cx="15" cy="15" r="15" stroke="#000000" fill="url(#_EF1B3D59-E6B6-4196-AF91-4FE74277B5C2background) white" stroke-width="1" style="stroke-dasharray: 5.5, 3"/>      <circle id="_EF1B3D59-E6B6-4196-AF91-4FE74277B5C2frame" cx="15" cy="15" r="15" stroke="#000000" fill="none" stroke-width="1" display="inherit"/>  	<text font-size="11" id="_EF1B3D59-E6B6-4196-AF91-4FE74277B5C2text_name" x="15" y="32" oryx:align="top center" stroke="black" stroke-width="0pt" letter-spacing="-0.01px" fill="#000000" text-anchor="middle" transform="rotate(0 15 32)" visibility="inherit" oryx:fontSize="11"/>   </g></g><g class="children" style="overflow:hidden"/><g class="edge"/></g><g class="controls"><g class="dockers"/><g class="magnets" transform="translate(120, 165)"><g pointer-events="all" display="none" transform="translate(7, 7)"><circle cx="8" cy="8" r="4" stroke="none" fill="red" fill-opacity="0.3"/></g></g></g></g><g id="_CA70AC60-061A-404B-AF93-0BA677F7B8A3" bpmn2nodeid="_38D3619C-F291-4A4C-B6E3-D81B579DDA6F"><g class="stencils" transform="translate(195, 140)"><g class="me"><g pointer-events="fill" oryx:minimumSize="50 40" id="_CA70AC60-061A-404B-AF93-0BA677F7B8A3">   	<defs id="_CA70AC60-061A-404B-AF93-0BA677F7B8A3__CA70AC60-061A-404B-AF93-0BA677F7B8A3_17"> 		<radialGradient id="_CA70AC60-061A-404B-AF93-0BA677F7B8A3background" cx="10%" cy="10%" r="100%" fx="10%" fy="10%"> 			<stop offset="0%" stop-color="#ffffff" stop-opacity="1" id="_CA70AC60-061A-404B-AF93-0BA677F7B8A3__CA70AC60-061A-404B-AF93-0BA677F7B8A3_18"/> 			<stop id="_CA70AC60-061A-404B-AF93-0BA677F7B8A3fill_el" offset="100%" stop-color="#fafad2" stop-opacity="1"/> 		</radialGradient> 		<radialGradient id="_CA70AC60-061A-404B-AF93-0BA677F7B8A3borderbackground" cx="10%" cy="10%" r="100%" fx="10%" fy="10%"> 			<stop offset="0%" stop-color="#ffffff" stop-opacity="1" id="_CA70AC60-061A-404B-AF93-0BA677F7B8A3__CA70AC60-061A-404B-AF93-0BA677F7B8A3_19"/> 			<stop id="_CA70AC60-061A-404B-AF93-0BA677F7B8A3fill_border" offset="100%" stop-color="#000000" stop-opacity="1" stroke="#000000"/> 		</radialGradient> 	</defs> 	 	<rect id="_CA70AC60-061A-404B-AF93-0BA677F7B8A3text_frame" oryx:anchors="bottom top right left" x="1" y="1" width="94" height="79" rx="10" ry="10" stroke="none" stroke-width="0" fill="none"/> 	<rect id="_CA70AC60-061A-404B-AF93-0BA677F7B8A3bg_frame" oryx:resize="vertical horizontal" x="0" y="0" width="100" height="80" rx="10" ry="10" stroke="#000000" stroke-width="1" fill="url(#_CA70AC60-061A-404B-AF93-0BA677F7B8A3background) #ffffcc"/> 		<text font-size="12" id="_CA70AC60-061A-404B-AF93-0BA677F7B8A3text_name" x="50" y="40" oryx:align="middle center" oryx:fittoelem="text_frame" stroke="black" text-anchor="middle" stroke-width="0pt" letter-spacing="-0.01px" fill="#000000" transform="rotate(0 50 40)" visibility="inherit" oryx:fontSize="12"><tspan x="50" y="40" dy="5">sysout1</tspan></text>     <g id="_CA70AC60-061A-404B-AF93-0BA677F7B8A3manualTask" transform="scale(0.7,0.7) translate(8,8)" display="none">     	<path oryx:anchors="top left" id="_CA70AC60-061A-404B-AF93-0BA677F7B8A3frame" style="opacity:1;fill:none;fill-opacity:1;stroke-width:1" d="M0.5,3.751l4.083-3.25c0,0,11.166,0.083,12.083,0.083s-2.417,2.917-1.5,2.917     s11.667,0,12.584,0c1.166,1.708-0.168,3.167-0.834,3.667s0.875,1.917-1,4.417c-0.75,0.25,0.75,1.875-1.333,3.333     c-1.167,0.583,0.583,1.542-1.25,2.833c-1.167,0-20.833,0.083-20.833,0.083l-2-1.333V3.751z" stroke="#000000"/> 		<path id="_CA70AC60-061A-404B-AF93-0BA677F7B8A3frame2" oryx:anchors="top left" style="opacity:1;fill:none;stroke-width:2" d="M 13.5 7 L 27 7" stroke="#000000"/> 		<path id="_CA70AC60-061A-404B-AF93-0BA677F7B8A3frame3" oryx:anchors="top left" style="opacity:1;fill:none;stroke-width:2" d="M 13.5 11 L 26 11" stroke="#000000"/> 		<path id="_CA70AC60-061A-404B-AF93-0BA677F7B8A3frame4" oryx:anchors="top left" style="opacity:1;fill:none;stroke-width:1.5" d="M 14 14.5 L 25 14.5" stroke="#000000"/> 		<path id="_CA70AC60-061A-404B-AF93-0BA677F7B8A3frame5" oryx:anchors="top left" style="opacity:1;fill:none;stroke-width:1.5" d="M 8.2 3.1 L 15 3.1" stroke="#000000"/> 	</g> 	 	<g id="_CA70AC60-061A-404B-AF93-0BA677F7B8A3businessRuleTask" transform="scale(0.7,0.7) translate(8,8)" display="none"> 		<rect id="_CA70AC60-061A-404B-AF93-0BA677F7B8A3frame6" oryx:anchors="top left" x="0" y="0" width="22" height="4" style="opacity:1;fill:#B3B1B3;fill-opacity:1;" stroke="#000000"/> 		<rect id="_CA70AC60-061A-404B-AF93-0BA677F7B8A3frame7" oryx:anchors="top left" x="0" y="4" style="opacity:1;fill:none;" width="22" height="12" stroke="#000000"/> 		<path id="_CA70AC60-061A-404B-AF93-0BA677F7B8A3frame8" oryx:anchors="top left" style="opacity:1;fill:none;" d="M 0 10 L 22 10" stroke="#000000"/> 		<path id="_CA70AC60-061A-404B-AF93-0BA677F7B8A3frame9" oryx:anchors="top left" style="opacity:1; fill:none;" d="M 7 4 L 7 16" stroke="#000000"/> 	</g> 	 	<g id="_CA70AC60-061A-404B-AF93-0BA677F7B8A3scriptTask" transform="scale(0.7,0.7) translate(8,8)" display="inherit"> 		<path oryx:anchors="top left" id="_CA70AC60-061A-404B-AF93-0BA677F7B8A3frame10" style="opacity:1;fill:none;" stroke="#000000" d="M6.402,0.5h14.5c0,0-5.833,2.833-5.833,5.583s4.417,6,4.417,9.167    s-4.167,5.083-4.167,5.083H0.235c0,0,5-2.667,5-5s-4.583-6.75-4.583-9.25S6.402,0.5,6.402,0.5z"/> 		<path oryx:anchors="top left" id="_CA70AC60-061A-404B-AF93-0BA677F7B8A3frame11" style="opacity:1;fill:none;stroke-width:1.5" d="M 3.5 4.5 L 13.5 4.5" stroke="#000000"/> 		<path oryx:anchors="top left" id="_CA70AC60-061A-404B-AF93-0BA677F7B8A3frame12" style="opacity:1;fill:none;stroke-width:1.5" d="M 3.8 8.5 L 13.8 8.5" stroke="#000000"/> 		<path oryx:anchors="top left" id="_CA70AC60-061A-404B-AF93-0BA677F7B8A3frame13" style="opacity:1;fill:none;stroke-width:1.5" d="M 6.3 12.5 L 16.3 12.5" stroke="#000000"/> 		<path oryx:anchors="top left" id="_CA70AC60-061A-404B-AF93-0BA677F7B8A3frame14" style="opacity:1;fill:none;stroke-width:1.5" d="M 6.5 16.5 L 16.5 16.5" stroke="#000000"/> 	</g> 	 	<g id="_CA70AC60-061A-404B-AF93-0BA677F7B8A3userTask" transform="scale(0.7,0.7) translate(8,8)" display="none"> 		<path id="_CA70AC60-061A-404B-AF93-0BA677F7B8A3frame15" oryx:anchors="top left" style="opacity:1;fill:#F4F6F7" stroke="#000000" d="M0.585,24.167h24.083v-7.833c0,0-2.333-3.917-7.083-5.167h-9.25    c-4.417,1.333-7.833,5.75-7.833,5.75L0.585,24.167z"/> 		<path id="_CA70AC60-061A-404B-AF93-0BA677F7B8A3frame16" oryx:anchors="top left" style="opacity:1;fill:none" d="M 6 20 L 6 24" stroke="#000000"/> 		<path id="_CA70AC60-061A-404B-AF93-0BA677F7B8A3frame17" oryx:anchors="top left" style="opacity:1;fill:none" d="M 20 20 L 20 24" stroke="#000000"/> 		<circle id="_CA70AC60-061A-404B-AF93-0BA677F7B8A3frame18" oryx:anchors="top left" fill="black" cx="13.002" cy="5.916" r="5.417" stroke="#000000"/> 		<path id="_CA70AC60-061A-404B-AF93-0BA677F7B8A3frame19" oryx:anchors="top left" style="opacity:1;fill:#F0EFF0;" stroke="#000000" d="M8.043,7.083c0,0,2.814-2.426,5.376-1.807s4.624-0.693,4.624-0.693    c0.25,1.688,0.042,3.75-1.458,5.584c0,0,1.083,0.75,1.083,1.5s0.125,1.875-1,3s-5.5,1.25-6.75,0S8.668,12.834,8.668,12    s0.583-1.25,1.25-1.917C8.835,9.5,7.419,7.708,8.043,7.083z"/> 	</g> 	 	<g id="_CA70AC60-061A-404B-AF93-0BA677F7B8A3serviceTask" transform="scale(0.7,0.7) translate(8,8)" display="none"> 		<polygon oryx:anchors="top left" id="_CA70AC60-061A-404B-AF93-0BA677F7B8A3frame20" style="opacity:1;fill:#ffffff" stroke="#000000" points="15.392,5.064 17.954,2.502 20.347,4.895 17.786,7.455     18.729,9.732 22.353,9.732 22.353,13.115 18.731,13.115 17.788,15.392 20.351,17.955 17.958,20.347 15.397,17.786 13.12,18.729     13.12,22.353 9.737,22.353 9.737,18.731 7.46,17.788 4.897,20.35 2.506,17.958 5.066,15.397 4.124,13.12 0.5,13.12 0.5,9.737     4.121,9.737 5.065,7.461 2.503,4.898 4.895,2.506 7.455,5.066 9.732,4.125 9.732,0.5 13.116,0.5 13.116,4.121 "/> 		<circle oryx:anchors="top left" id="_CA70AC60-061A-404B-AF93-0BA677F7B8A3frame21" style="opacity:1;fill:none" stroke="#000000" cx="11.427" cy="11.426" r="3.714"/> 		<polygon oryx:anchors="top left" id="_CA70AC60-061A-404B-AF93-0BA677F7B8A3frame22" style="opacity:1;fill:#ffffff" stroke="#000000" points="21.392,11.064 23.954,8.502 26.347,10.895 23.786,13.455     24.729,15.732 28.353,15.732 28.353,19.115 24.731,19.115 23.788,21.392 26.351,23.955 23.958,26.347 21.397,23.786 19.12,24.729     19.12,28.353 15.737,28.353 15.737,24.731 13.46,23.788 10.897,26.35 8.506,23.958 11.066,21.397 10.124,19.12 6.5,19.12     6.5,15.737 10.121,15.737 11.065,13.461 8.503,10.898 10.895,8.506 13.455,11.066 15.732,10.125 15.732,6.5 19.116,6.5     19.116,10.121 "/> 		<circle oryx:anchors="top left" id="_CA70AC60-061A-404B-AF93-0BA677F7B8A3frame23" style="opacity:1;fill:none;" stroke="#000000" cx="17.427" cy="17.426" r="3.714"/> 	</g> 	 	<g id="_CA70AC60-061A-404B-AF93-0BA677F7B8A3sendTask" display="none"> 		<path id="_CA70AC60-061A-404B-AF93-0BA677F7B8A3stframe24" oryx:anchors="left top" stroke="#FFFFFF" fill="black" stroke-width="1" d="M8,11 L8,21 L24,21 L24,11 L16,17z"/> 		<path id="_CA70AC60-061A-404B-AF93-0BA677F7B8A3stframe25" oryx:anchors="left top" stroke="#FFFFFF" fill="black" stroke-width="1" d="M7,10 L16,17 L25 10z"/> 	</g> 	 	<g id="_CA70AC60-061A-404B-AF93-0BA677F7B8A3receiveTask" display="none"> 		<path id="_CA70AC60-061A-404B-AF93-0BA677F7B8A3frame26" oryx:anchors="left top" stroke="#000000" fill="none" stroke-width="1" d="M8,11 L8,21 L24,21 L24,11z M8,11 L16,17 L24,11"/> 	</g> 	 	<g id="_CA70AC60-061A-404B-AF93-0BA677F7B8A3none" display="inherit"/>  	<g id="_CA70AC60-061A-404B-AF93-0BA677F7B8A3sequential" display="none">         <path oryx:anchors="bottom" fill="none" stroke="#000000" stroke-width="2" d="M46,76h10M46,72h10 M46,68h10" id="_CA70AC60-061A-404B-AF93-0BA677F7B8A3__CA70AC60-061A-404B-AF93-0BA677F7B8A3_20"/>     </g>   </g></g><g class="children" style="overflow:hidden"/><g class="edge"/></g><g class="controls"><g class="dockers"/><g class="magnets" transform="translate(195, 140)"><g pointer-events="all" display="none" transform="translate(-7, 12)"><circle cx="8" cy="8" r="4" stroke="none" fill="red" fill-opacity="0.3"/></g><g pointer-events="all" display="none" transform="translate(-7, 32)"><circle cx="8" cy="8" r="4" stroke="none" fill="red" fill-opacity="0.3"/></g><g pointer-events="all" display="none" transform="translate(-7, 52)"><circle cx="8" cy="8" r="4" stroke="none" fill="red" fill-opacity="0.3"/></g><g pointer-events="all" display="none" transform="translate(17, 71)"><circle cx="8" cy="8" r="4" stroke="none" fill="red" fill-opacity="0.3"/></g><g pointer-events="all" display="none" transform="translate(42, 71)"><circle cx="8" cy="8" r="4" stroke="none" fill="red" fill-opacity="0.3"/></g><g pointer-events="all" display="none" transform="translate(67, 71)"><circle cx="8" cy="8" r="4" stroke="none" fill="red" fill-opacity="0.3"/></g><g pointer-events="all" display="none" transform="translate(91, 12)"><circle cx="8" cy="8" r="4" stroke="none" fill="red" fill-opacity="0.3"/></g><g pointer-events="all" display="none" transform="translate(91, 32)"><circle cx="8" cy="8" r="4" stroke="none" fill="red" fill-opacity="0.3"/></g><g pointer-events="all" display="none" transform="translate(91, 52)"><circle cx="8" cy="8" r="4" stroke="none" fill="red" fill-opacity="0.3"/></g><g pointer-events="all" display="none" transform="translate(17, -7)"><circle cx="8" cy="8" r="4" stroke="none" fill="red" fill-opacity="0.3"/></g><g pointer-events="all" display="none" transform="translate(42, -7)"><circle cx="8" cy="8" r="4" stroke="none" fill="red" fill-opacity="0.3"/></g><g pointer-events="all" display="none" transform="translate(67, -7)"><circle cx="8" cy="8" r="4" stroke="none" fill="red" fill-opacity="0.3"/></g><g pointer-events="all" display="none" transform="translate(42, 32)"><circle cx="8" cy="8" r="4" stroke="none" fill="red" fill-opacity="0.3"/></g></g></g></g><g id="_47CEB7D2-CB86-4F58-ABE8-537DC493D529" bpmn2nodeid="_84F1E8C6-FDE7-4B1A-8CA9-78BB92C58013"><g class="stencils" transform="translate(340, 140)"><g class="me"><g pointer-events="fill" oryx:minimumSize="50 40" id="_47CEB7D2-CB86-4F58-ABE8-537DC493D529">   	<defs id="_47CEB7D2-CB86-4F58-ABE8-537DC493D529__47CEB7D2-CB86-4F58-ABE8-537DC493D529_17"> 		<radialGradient id="_47CEB7D2-CB86-4F58-ABE8-537DC493D529background" cx="10%" cy="10%" r="100%" fx="10%" fy="10%"> 			<stop offset="0%" stop-color="#ffffff" stop-opacity="1" id="_47CEB7D2-CB86-4F58-ABE8-537DC493D529__47CEB7D2-CB86-4F58-ABE8-537DC493D529_18"/> 			<stop id="_47CEB7D2-CB86-4F58-ABE8-537DC493D529fill_el" offset="100%" stop-color="#fafad2" stop-opacity="1"/> 		</radialGradient> 		<radialGradient id="_47CEB7D2-CB86-4F58-ABE8-537DC493D529borderbackground" cx="10%" cy="10%" r="100%" fx="10%" fy="10%"> 			<stop offset="0%" stop-color="#ffffff" stop-opacity="1" id="_47CEB7D2-CB86-4F58-ABE8-537DC493D529__47CEB7D2-CB86-4F58-ABE8-537DC493D529_19"/> 			<stop id="_47CEB7D2-CB86-4F58-ABE8-537DC493D529fill_border" offset="100%" stop-color="#000000" stop-opacity="1" stroke="#000000"/> 		</radialGradient> 	</defs> 	 	<rect id="_47CEB7D2-CB86-4F58-ABE8-537DC493D529text_frame" oryx:anchors="bottom top right left" x="1" y="1" width="94" height="79" rx="10" ry="10" stroke="none" stroke-width="0" fill="none"/> 	<rect id="_47CEB7D2-CB86-4F58-ABE8-537DC493D529bg_frame" oryx:resize="vertical horizontal" x="0" y="0" width="100" height="80" rx="10" ry="10" stroke="#000000" stroke-width="1" fill="url(#_47CEB7D2-CB86-4F58-ABE8-537DC493D529background) #ffffcc"/> 		<text font-size="12" id="_47CEB7D2-CB86-4F58-ABE8-537DC493D529text_name" x="50" y="40" oryx:align="middle center" oryx:fittoelem="text_frame" stroke="black" text-anchor="middle" stroke-width="0pt" letter-spacing="-0.01px" fill="#000000" transform="rotate(0 50 40)" visibility="inherit" oryx:fontSize="12"><tspan x="50" y="40" dy="5" id="ext-gen616">usertask</tspan></text>     <g id="_47CEB7D2-CB86-4F58-ABE8-537DC493D529manualTask" transform="scale(0.7,0.7) translate(8,8)" display="none">     	<path oryx:anchors="top left" id="_47CEB7D2-CB86-4F58-ABE8-537DC493D529frame" style="opacity:1;fill:none;fill-opacity:1;stroke-width:1" d="M0.5,3.751l4.083-3.25c0,0,11.166,0.083,12.083,0.083s-2.417,2.917-1.5,2.917     s11.667,0,12.584,0c1.166,1.708-0.168,3.167-0.834,3.667s0.875,1.917-1,4.417c-0.75,0.25,0.75,1.875-1.333,3.333     c-1.167,0.583,0.583,1.542-1.25,2.833c-1.167,0-20.833,0.083-20.833,0.083l-2-1.333V3.751z" stroke="#000000"/> 		<path id="_47CEB7D2-CB86-4F58-ABE8-537DC493D529frame2" oryx:anchors="top left" style="opacity:1;fill:none;stroke-width:2" d="M 13.5 7 L 27 7" stroke="#000000"/> 		<path id="_47CEB7D2-CB86-4F58-ABE8-537DC493D529frame3" oryx:anchors="top left" style="opacity:1;fill:none;stroke-width:2" d="M 13.5 11 L 26 11" stroke="#000000"/> 		<path id="_47CEB7D2-CB86-4F58-ABE8-537DC493D529frame4" oryx:anchors="top left" style="opacity:1;fill:none;stroke-width:1.5" d="M 14 14.5 L 25 14.5" stroke="#000000"/> 		<path id="_47CEB7D2-CB86-4F58-ABE8-537DC493D529frame5" oryx:anchors="top left" style="opacity:1;fill:none;stroke-width:1.5" d="M 8.2 3.1 L 15 3.1" stroke="#000000"/> 	</g> 	 	<g id="_47CEB7D2-CB86-4F58-ABE8-537DC493D529businessRuleTask" transform="scale(0.7,0.7) translate(8,8)" display="none"> 		<rect id="_47CEB7D2-CB86-4F58-ABE8-537DC493D529frame6" oryx:anchors="top left" x="0" y="0" width="22" height="4" style="opacity:1;fill:#B3B1B3;fill-opacity:1;" stroke="#000000"/> 		<rect id="_47CEB7D2-CB86-4F58-ABE8-537DC493D529frame7" oryx:anchors="top left" x="0" y="4" style="opacity:1;fill:none;" width="22" height="12" stroke="#000000"/> 		<path id="_47CEB7D2-CB86-4F58-ABE8-537DC493D529frame8" oryx:anchors="top left" style="opacity:1;fill:none;" d="M 0 10 L 22 10" stroke="#000000"/> 		<path id="_47CEB7D2-CB86-4F58-ABE8-537DC493D529frame9" oryx:anchors="top left" style="opacity:1; fill:none;" d="M 7 4 L 7 16" stroke="#000000"/> 	</g> 	 	<g id="_47CEB7D2-CB86-4F58-ABE8-537DC493D529scriptTask" transform="scale(0.7,0.7) translate(8,8)" display="none"> 		<path oryx:anchors="top left" id="_47CEB7D2-CB86-4F58-ABE8-537DC493D529frame10" style="opacity:1;fill:none;" stroke="#000000" d="M6.402,0.5h14.5c0,0-5.833,2.833-5.833,5.583s4.417,6,4.417,9.167    s-4.167,5.083-4.167,5.083H0.235c0,0,5-2.667,5-5s-4.583-6.75-4.583-9.25S6.402,0.5,6.402,0.5z"/> 		<path oryx:anchors="top left" id="_47CEB7D2-CB86-4F58-ABE8-537DC493D529frame11" style="opacity:1;fill:none;stroke-width:1.5" d="M 3.5 4.5 L 13.5 4.5" stroke="#000000"/> 		<path oryx:anchors="top left" id="_47CEB7D2-CB86-4F58-ABE8-537DC493D529frame12" style="opacity:1;fill:none;stroke-width:1.5" d="M 3.8 8.5 L 13.8 8.5" stroke="#000000"/> 		<path oryx:anchors="top left" id="_47CEB7D2-CB86-4F58-ABE8-537DC493D529frame13" style="opacity:1;fill:none;stroke-width:1.5" d="M 6.3 12.5 L 16.3 12.5" stroke="#000000"/> 		<path oryx:anchors="top left" id="_47CEB7D2-CB86-4F58-ABE8-537DC493D529frame14" style="opacity:1;fill:none;stroke-width:1.5" d="M 6.5 16.5 L 16.5 16.5" stroke="#000000"/> 	</g> 	 	<g id="_47CEB7D2-CB86-4F58-ABE8-537DC493D529userTask" transform="scale(0.7,0.7) translate(8,8)" display="inherit"> 		<path id="_47CEB7D2-CB86-4F58-ABE8-537DC493D529frame15" oryx:anchors="top left" style="opacity:1;fill:#F4F6F7" stroke="#000000" d="M0.585,24.167h24.083v-7.833c0,0-2.333-3.917-7.083-5.167h-9.25    c-4.417,1.333-7.833,5.75-7.833,5.75L0.585,24.167z"/> 		<path id="_47CEB7D2-CB86-4F58-ABE8-537DC493D529frame16" oryx:anchors="top left" style="opacity:1;fill:none" d="M 6 20 L 6 24" stroke="#000000"/> 		<path id="_47CEB7D2-CB86-4F58-ABE8-537DC493D529frame17" oryx:anchors="top left" style="opacity:1;fill:none" d="M 20 20 L 20 24" stroke="#000000"/> 		<circle id="_47CEB7D2-CB86-4F58-ABE8-537DC493D529frame18" oryx:anchors="top left" fill="black" cx="13.002" cy="5.916" r="5.417" stroke="#000000"/> 		<path id="_47CEB7D2-CB86-4F58-ABE8-537DC493D529frame19" oryx:anchors="top left" style="opacity:1;fill:#F0EFF0;" stroke="#000000" d="M8.043,7.083c0,0,2.814-2.426,5.376-1.807s4.624-0.693,4.624-0.693    c0.25,1.688,0.042,3.75-1.458,5.584c0,0,1.083,0.75,1.083,1.5s0.125,1.875-1,3s-5.5,1.25-6.75,0S8.668,12.834,8.668,12    s0.583-1.25,1.25-1.917C8.835,9.5,7.419,7.708,8.043,7.083z"/> 	</g> 	 	<g id="_47CEB7D2-CB86-4F58-ABE8-537DC493D529serviceTask" transform="scale(0.7,0.7) translate(8,8)" display="none"> 		<polygon oryx:anchors="top left" id="_47CEB7D2-CB86-4F58-ABE8-537DC493D529frame20" style="opacity:1;fill:#ffffff" stroke="#000000" points="15.392,5.064 17.954,2.502 20.347,4.895 17.786,7.455     18.729,9.732 22.353,9.732 22.353,13.115 18.731,13.115 17.788,15.392 20.351,17.955 17.958,20.347 15.397,17.786 13.12,18.729     13.12,22.353 9.737,22.353 9.737,18.731 7.46,17.788 4.897,20.35 2.506,17.958 5.066,15.397 4.124,13.12 0.5,13.12 0.5,9.737     4.121,9.737 5.065,7.461 2.503,4.898 4.895,2.506 7.455,5.066 9.732,4.125 9.732,0.5 13.116,0.5 13.116,4.121 "/> 		<circle oryx:anchors="top left" id="_47CEB7D2-CB86-4F58-ABE8-537DC493D529frame21" style="opacity:1;fill:none" stroke="#000000" cx="11.427" cy="11.426" r="3.714"/> 		<polygon oryx:anchors="top left" id="_47CEB7D2-CB86-4F58-ABE8-537DC493D529frame22" style="opacity:1;fill:#ffffff" stroke="#000000" points="21.392,11.064 23.954,8.502 26.347,10.895 23.786,13.455     24.729,15.732 28.353,15.732 28.353,19.115 24.731,19.115 23.788,21.392 26.351,23.955 23.958,26.347 21.397,23.786 19.12,24.729     19.12,28.353 15.737,28.353 15.737,24.731 13.46,23.788 10.897,26.35 8.506,23.958 11.066,21.397 10.124,19.12 6.5,19.12     6.5,15.737 10.121,15.737 11.065,13.461 8.503,10.898 10.895,8.506 13.455,11.066 15.732,10.125 15.732,6.5 19.116,6.5     19.116,10.121 "/> 		<circle oryx:anchors="top left" id="_47CEB7D2-CB86-4F58-ABE8-537DC493D529frame23" style="opacity:1;fill:none;" stroke="#000000" cx="17.427" cy="17.426" r="3.714"/> 	</g> 	 	<g id="_47CEB7D2-CB86-4F58-ABE8-537DC493D529sendTask" display="none"> 		<path id="_47CEB7D2-CB86-4F58-ABE8-537DC493D529stframe24" oryx:anchors="left top" stroke="#FFFFFF" fill="black" stroke-width="1" d="M8,11 L8,21 L24,21 L24,11 L16,17z"/> 		<path id="_47CEB7D2-CB86-4F58-ABE8-537DC493D529stframe25" oryx:anchors="left top" stroke="#FFFFFF" fill="black" stroke-width="1" d="M7,10 L16,17 L25 10z"/> 	</g> 	 	<g id="_47CEB7D2-CB86-4F58-ABE8-537DC493D529receiveTask" display="none"> 		<path id="_47CEB7D2-CB86-4F58-ABE8-537DC493D529frame26" oryx:anchors="left top" stroke="#000000" fill="none" stroke-width="1" d="M8,11 L8,21 L24,21 L24,11z M8,11 L16,17 L24,11"/> 	</g> 	 	<g id="_47CEB7D2-CB86-4F58-ABE8-537DC493D529none" display="inherit"/>  	<g id="_47CEB7D2-CB86-4F58-ABE8-537DC493D529sequential" display="none">         <path oryx:anchors="bottom" fill="none" stroke="#000000" stroke-width="2" d="M46,76h10M46,72h10 M46,68h10" id="_47CEB7D2-CB86-4F58-ABE8-537DC493D529__47CEB7D2-CB86-4F58-ABE8-537DC493D529_20"/>     </g>   </g></g><g class="children" style="overflow:hidden"/><g class="edge"/></g><g class="controls"><g class="dockers"/><g class="magnets" transform="translate(340, 140)"><g pointer-events="all" display="none" transform="translate(-7, 12)"><circle cx="8" cy="8" r="4" stroke="none" fill="red" fill-opacity="0.3"/></g><g pointer-events="all" display="none" transform="translate(-7, 32)"><circle cx="8" cy="8" r="4" stroke="none" fill="red" fill-opacity="0.3"/></g><g pointer-events="all" display="none" transform="translate(-7, 52)"><circle cx="8" cy="8" r="4" stroke="none" fill="red" fill-opacity="0.3"/></g><g pointer-events="all" display="none" transform="translate(17, 71)"><circle cx="8" cy="8" r="4" stroke="none" fill="red" fill-opacity="0.3"/></g><g pointer-events="all" display="none" transform="translate(42, 71)"><circle cx="8" cy="8" r="4" stroke="none" fill="red" fill-opacity="0.3"/></g><g pointer-events="all" display="none" transform="translate(67, 71)"><circle cx="8" cy="8" r="4" stroke="none" fill="red" fill-opacity="0.3"/></g><g pointer-events="all" display="none" transform="translate(91, 12)"><circle cx="8" cy="8" r="4" stroke="none" fill="red" fill-opacity="0.3"/></g><g pointer-events="all" display="none" transform="translate(91, 32)"><circle cx="8" cy="8" r="4" stroke="none" fill="red" fill-opacity="0.3"/></g><g pointer-events="all" display="none" transform="translate(91, 52)"><circle cx="8" cy="8" r="4" stroke="none" fill="red" fill-opacity="0.3"/></g><g pointer-events="all" display="none" transform="translate(17, -7)"><circle cx="8" cy="8" r="4" stroke="none" fill="red" fill-opacity="0.3"/></g><g pointer-events="all" display="none" transform="translate(42, -7)"><circle cx="8" cy="8" r="4" stroke="none" fill="red" fill-opacity="0.3"/></g><g pointer-events="all" display="none" transform="translate(67, -7)"><circle cx="8" cy="8" r="4" stroke="none" fill="red" fill-opacity="0.3"/></g><g pointer-events="all" display="none" transform="translate(42, 32)"><circle cx="8" cy="8" r="4" stroke="none" fill="red" fill-opacity="0.3"/></g></g></g></g><g id="_6710E2EF-1684-49EB-ABCE-DF4FAE7287BF" bpmn2nodeid="_63D7087F-7E59-481B-A858-8146481BCE68"><g class="stencils" transform="translate(485, 140)"><g class="me"><g pointer-events="fill" oryx:minimumSize="50 40" id="_6710E2EF-1684-49EB-ABCE-DF4FAE7287BF">   	<defs id="_6710E2EF-1684-49EB-ABCE-DF4FAE7287BF__6710E2EF-1684-49EB-ABCE-DF4FAE7287BF_17"> 		<radialGradient id="_6710E2EF-1684-49EB-ABCE-DF4FAE7287BFbackground" cx="10%" cy="10%" r="100%" fx="10%" fy="10%"> 			<stop offset="0%" stop-color="#ffffff" stop-opacity="1" id="_6710E2EF-1684-49EB-ABCE-DF4FAE7287BF__6710E2EF-1684-49EB-ABCE-DF4FAE7287BF_18"/> 			<stop id="_6710E2EF-1684-49EB-ABCE-DF4FAE7287BFfill_el" offset="100%" stop-color="#fafad2" stop-opacity="1"/> 		</radialGradient> 		<radialGradient id="_6710E2EF-1684-49EB-ABCE-DF4FAE7287BFborderbackground" cx="10%" cy="10%" r="100%" fx="10%" fy="10%"> 			<stop offset="0%" stop-color="#ffffff" stop-opacity="1" id="_6710E2EF-1684-49EB-ABCE-DF4FAE7287BF__6710E2EF-1684-49EB-ABCE-DF4FAE7287BF_19"/> 			<stop id="_6710E2EF-1684-49EB-ABCE-DF4FAE7287BFfill_border" offset="100%" stop-color="#000000" stop-opacity="1" stroke="#000000"/> 		</radialGradient> 	</defs> 	 	<rect id="_6710E2EF-1684-49EB-ABCE-DF4FAE7287BFtext_frame" oryx:anchors="bottom top right left" x="1" y="1" width="94" height="79" rx="10" ry="10" stroke="none" stroke-width="0" fill="none"/> 	<rect id="_6710E2EF-1684-49EB-ABCE-DF4FAE7287BFbg_frame" oryx:resize="vertical horizontal" x="0" y="0" width="100" height="80" rx="10" ry="10" stroke="#000000" stroke-width="1" fill="url(#_6710E2EF-1684-49EB-ABCE-DF4FAE7287BFbackground) #ffffcc"/> 		<text font-size="12" id="_6710E2EF-1684-49EB-ABCE-DF4FAE7287BFtext_name" x="50" y="40" oryx:align="middle center" oryx:fittoelem="text_frame" stroke="black" text-anchor="middle" stroke-width="0pt" letter-spacing="-0.01px" fill="#000000" transform="rotate(0 50 40)" visibility="inherit" oryx:fontSize="12"><tspan x="50" y="40" dy="5">sysout2</tspan></text>     <g id="_6710E2EF-1684-49EB-ABCE-DF4FAE7287BFmanualTask" transform="scale(0.7,0.7) translate(8,8)" display="none">     	<path oryx:anchors="top left" id="_6710E2EF-1684-49EB-ABCE-DF4FAE7287BFframe" style="opacity:1;fill:none;fill-opacity:1;stroke-width:1" d="M0.5,3.751l4.083-3.25c0,0,11.166,0.083,12.083,0.083s-2.417,2.917-1.5,2.917     s11.667,0,12.584,0c1.166,1.708-0.168,3.167-0.834,3.667s0.875,1.917-1,4.417c-0.75,0.25,0.75,1.875-1.333,3.333     c-1.167,0.583,0.583,1.542-1.25,2.833c-1.167,0-20.833,0.083-20.833,0.083l-2-1.333V3.751z" stroke="#000000"/> 		<path id="_6710E2EF-1684-49EB-ABCE-DF4FAE7287BFframe2" oryx:anchors="top left" style="opacity:1;fill:none;stroke-width:2" d="M 13.5 7 L 27 7" stroke="#000000"/> 		<path id="_6710E2EF-1684-49EB-ABCE-DF4FAE7287BFframe3" oryx:anchors="top left" style="opacity:1;fill:none;stroke-width:2" d="M 13.5 11 L 26 11" stroke="#000000"/> 		<path id="_6710E2EF-1684-49EB-ABCE-DF4FAE7287BFframe4" oryx:anchors="top left" style="opacity:1;fill:none;stroke-width:1.5" d="M 14 14.5 L 25 14.5" stroke="#000000"/> 		<path id="_6710E2EF-1684-49EB-ABCE-DF4FAE7287BFframe5" oryx:anchors="top left" style="opacity:1;fill:none;stroke-width:1.5" d="M 8.2 3.1 L 15 3.1" stroke="#000000"/> 	</g> 	 	<g id="_6710E2EF-1684-49EB-ABCE-DF4FAE7287BFbusinessRuleTask" transform="scale(0.7,0.7) translate(8,8)" display="none"> 		<rect id="_6710E2EF-1684-49EB-ABCE-DF4FAE7287BFframe6" oryx:anchors="top left" x="0" y="0" width="22" height="4" style="opacity:1;fill:#B3B1B3;fill-opacity:1;" stroke="#000000"/> 		<rect id="_6710E2EF-1684-49EB-ABCE-DF4FAE7287BFframe7" oryx:anchors="top left" x="0" y="4" style="opacity:1;fill:none;" width="22" height="12" stroke="#000000"/> 		<path id="_6710E2EF-1684-49EB-ABCE-DF4FAE7287BFframe8" oryx:anchors="top left" style="opacity:1;fill:none;" d="M 0 10 L 22 10" stroke="#000000"/> 		<path id="_6710E2EF-1684-49EB-ABCE-DF4FAE7287BFframe9" oryx:anchors="top left" style="opacity:1; fill:none;" d="M 7 4 L 7 16" stroke="#000000"/> 	</g> 	 	<g id="_6710E2EF-1684-49EB-ABCE-DF4FAE7287BFscriptTask" transform="scale(0.7,0.7) translate(8,8)" display="inherit"> 		<path oryx:anchors="top left" id="_6710E2EF-1684-49EB-ABCE-DF4FAE7287BFframe10" style="opacity:1;fill:none;" stroke="#000000" d="M6.402,0.5h14.5c0,0-5.833,2.833-5.833,5.583s4.417,6,4.417,9.167    s-4.167,5.083-4.167,5.083H0.235c0,0,5-2.667,5-5s-4.583-6.75-4.583-9.25S6.402,0.5,6.402,0.5z"/> 		<path oryx:anchors="top left" id="_6710E2EF-1684-49EB-ABCE-DF4FAE7287BFframe11" style="opacity:1;fill:none;stroke-width:1.5" d="M 3.5 4.5 L 13.5 4.5" stroke="#000000"/> 		<path oryx:anchors="top left" id="_6710E2EF-1684-49EB-ABCE-DF4FAE7287BFframe12" style="opacity:1;fill:none;stroke-width:1.5" d="M 3.8 8.5 L 13.8 8.5" stroke="#000000"/> 		<path oryx:anchors="top left" id="_6710E2EF-1684-49EB-ABCE-DF4FAE7287BFframe13" style="opacity:1;fill:none;stroke-width:1.5" d="M 6.3 12.5 L 16.3 12.5" stroke="#000000"/> 		<path oryx:anchors="top left" id="_6710E2EF-1684-49EB-ABCE-DF4FAE7287BFframe14" style="opacity:1;fill:none;stroke-width:1.5" d="M 6.5 16.5 L 16.5 16.5" stroke="#000000"/> 	</g> 	 	<g id="_6710E2EF-1684-49EB-ABCE-DF4FAE7287BFuserTask" transform="scale(0.7,0.7) translate(8,8)" display="none"> 		<path id="_6710E2EF-1684-49EB-ABCE-DF4FAE7287BFframe15" oryx:anchors="top left" style="opacity:1;fill:#F4F6F7" stroke="#000000" d="M0.585,24.167h24.083v-7.833c0,0-2.333-3.917-7.083-5.167h-9.25    c-4.417,1.333-7.833,5.75-7.833,5.75L0.585,24.167z"/> 		<path id="_6710E2EF-1684-49EB-ABCE-DF4FAE7287BFframe16" oryx:anchors="top left" style="opacity:1;fill:none" d="M 6 20 L 6 24" stroke="#000000"/> 		<path id="_6710E2EF-1684-49EB-ABCE-DF4FAE7287BFframe17" oryx:anchors="top left" style="opacity:1;fill:none" d="M 20 20 L 20 24" stroke="#000000"/> 		<circle id="_6710E2EF-1684-49EB-ABCE-DF4FAE7287BFframe18" oryx:anchors="top left" fill="black" cx="13.002" cy="5.916" r="5.417" stroke="#000000"/> 		<path id="_6710E2EF-1684-49EB-ABCE-DF4FAE7287BFframe19" oryx:anchors="top left" style="opacity:1;fill:#F0EFF0;" stroke="#000000" d="M8.043,7.083c0,0,2.814-2.426,5.376-1.807s4.624-0.693,4.624-0.693    c0.25,1.688,0.042,3.75-1.458,5.584c0,0,1.083,0.75,1.083,1.5s0.125,1.875-1,3s-5.5,1.25-6.75,0S8.668,12.834,8.668,12    s0.583-1.25,1.25-1.917C8.835,9.5,7.419,7.708,8.043,7.083z"/> 	</g> 	 	<g id="_6710E2EF-1684-49EB-ABCE-DF4FAE7287BFserviceTask" transform="scale(0.7,0.7) translate(8,8)" display="none"> 		<polygon oryx:anchors="top left" id="_6710E2EF-1684-49EB-ABCE-DF4FAE7287BFframe20" style="opacity:1;fill:#ffffff" stroke="#000000" points="15.392,5.064 17.954,2.502 20.347,4.895 17.786,7.455     18.729,9.732 22.353,9.732 22.353,13.115 18.731,13.115 17.788,15.392 20.351,17.955 17.958,20.347 15.397,17.786 13.12,18.729     13.12,22.353 9.737,22.353 9.737,18.731 7.46,17.788 4.897,20.35 2.506,17.958 5.066,15.397 4.124,13.12 0.5,13.12 0.5,9.737     4.121,9.737 5.065,7.461 2.503,4.898 4.895,2.506 7.455,5.066 9.732,4.125 9.732,0.5 13.116,0.5 13.116,4.121 "/> 		<circle oryx:anchors="top left" id="_6710E2EF-1684-49EB-ABCE-DF4FAE7287BFframe21" style="opacity:1;fill:none" stroke="#000000" cx="11.427" cy="11.426" r="3.714"/> 		<polygon oryx:anchors="top left" id="_6710E2EF-1684-49EB-ABCE-DF4FAE7287BFframe22" style="opacity:1;fill:#ffffff" stroke="#000000" points="21.392,11.064 23.954,8.502 26.347,10.895 23.786,13.455     24.729,15.732 28.353,15.732 28.353,19.115 24.731,19.115 23.788,21.392 26.351,23.955 23.958,26.347 21.397,23.786 19.12,24.729     19.12,28.353 15.737,28.353 15.737,24.731 13.46,23.788 10.897,26.35 8.506,23.958 11.066,21.397 10.124,19.12 6.5,19.12     6.5,15.737 10.121,15.737 11.065,13.461 8.503,10.898 10.895,8.506 13.455,11.066 15.732,10.125 15.732,6.5 19.116,6.5     19.116,10.121 "/> 		<circle oryx:anchors="top left" id="_6710E2EF-1684-49EB-ABCE-DF4FAE7287BFframe23" style="opacity:1;fill:none;" stroke="#000000" cx="17.427" cy="17.426" r="3.714"/> 	</g> 	 	<g id="_6710E2EF-1684-49EB-ABCE-DF4FAE7287BFsendTask" display="none"> 		<path id="_6710E2EF-1684-49EB-ABCE-DF4FAE7287BFstframe24" oryx:anchors="left top" stroke="#FFFFFF" fill="black" stroke-width="1" d="M8,11 L8,21 L24,21 L24,11 L16,17z"/> 		<path id="_6710E2EF-1684-49EB-ABCE-DF4FAE7287BFstframe25" oryx:anchors="left top" stroke="#FFFFFF" fill="black" stroke-width="1" d="M7,10 L16,17 L25 10z"/> 	</g> 	 	<g id="_6710E2EF-1684-49EB-ABCE-DF4FAE7287BFreceiveTask" display="none"> 		<path id="_6710E2EF-1684-49EB-ABCE-DF4FAE7287BFframe26" oryx:anchors="left top" stroke="#000000" fill="none" stroke-width="1" d="M8,11 L8,21 L24,21 L24,11z M8,11 L16,17 L24,11"/> 	</g> 	 	<g id="_6710E2EF-1684-49EB-ABCE-DF4FAE7287BFnone" display="inherit"/>  	<g id="_6710E2EF-1684-49EB-ABCE-DF4FAE7287BFsequential" display="none">         <path oryx:anchors="bottom" fill="none" stroke="#000000" stroke-width="2" d="M46,76h10M46,72h10 M46,68h10" id="_6710E2EF-1684-49EB-ABCE-DF4FAE7287BF__6710E2EF-1684-49EB-ABCE-DF4FAE7287BF_20"/>     </g>   </g></g><g class="children" style="overflow:hidden"/><g class="edge"/></g><g class="controls"><g class="dockers"/><g class="magnets" transform="translate(485, 140)"><g pointer-events="all" display="none" transform="translate(-7, 12)"><circle cx="8" cy="8" r="4" stroke="none" fill="red" fill-opacity="0.3"/></g><g pointer-events="all" display="none" transform="translate(-7, 32)"><circle cx="8" cy="8" r="4" stroke="none" fill="red" fill-opacity="0.3"/></g><g pointer-events="all" display="none" transform="translate(-7, 52)"><circle cx="8" cy="8" r="4" stroke="none" fill="red" fill-opacity="0.3"/></g><g pointer-events="all" display="none" transform="translate(17, 71)"><circle cx="8" cy="8" r="4" stroke="none" fill="red" fill-opacity="0.3"/></g><g pointer-events="all" display="none" transform="translate(42, 71)"><circle cx="8" cy="8" r="4" stroke="none" fill="red" fill-opacity="0.3"/></g><g pointer-events="all" display="none" transform="translate(67, 71)"><circle cx="8" cy="8" r="4" stroke="none" fill="red" fill-opacity="0.3"/></g><g pointer-events="all" display="none" transform="translate(91, 12)"><circle cx="8" cy="8" r="4" stroke="none" fill="red" fill-opacity="0.3"/></g><g pointer-events="all" display="none" transform="translate(91, 32)"><circle cx="8" cy="8" r="4" stroke="none" fill="red" fill-opacity="0.3"/></g><g pointer-events="all" display="none" transform="translate(91, 52)"><circle cx="8" cy="8" r="4" stroke="none" fill="red" fill-opacity="0.3"/></g><g pointer-events="all" display="none" transform="translate(17, -7)"><circle cx="8" cy="8" r="4" stroke="none" fill="red" fill-opacity="0.3"/></g><g pointer-events="all" display="none" transform="translate(42, -7)"><circle cx="8" cy="8" r="4" stroke="none" fill="red" fill-opacity="0.3"/></g><g pointer-events="all" display="none" transform="translate(67, -7)"><circle cx="8" cy="8" r="4" stroke="none" fill="red" fill-opacity="0.3"/></g><g pointer-events="all" display="none" transform="translate(42, 32)"><circle cx="8" cy="8" r="4" stroke="none" fill="red" fill-opacity="0.3"/></g></g></g></g><g id="_580256B1-7BD8-4320-999E-BA5A9FB954CF" bpmn2nodeid="_FE407928-E48E-4F5B-BA26-61111E56E080"><g class="stencils" transform="translate(630, 166)"><g class="me"><g pointer-events="fill" id="_580256B1-7BD8-4320-999E-BA5A9FB954CF">      <defs id="_580256B1-7BD8-4320-999E-BA5A9FB954CF__580256B1-7BD8-4320-999E-BA5A9FB954CF_5"> 		<radialGradient id="_580256B1-7BD8-4320-999E-BA5A9FB954CFbackground" cx="10%" cy="10%" r="100%" fx="10%" fy="10%"> 			<stop offset="0%" stop-color="#ffffff" stop-opacity="1" id="_580256B1-7BD8-4320-999E-BA5A9FB954CF__580256B1-7BD8-4320-999E-BA5A9FB954CF_6"/> 			<stop id="_580256B1-7BD8-4320-999E-BA5A9FB954CFfill_el" offset="100%" stop-color="#ff6347" stop-opacity="1"/> 		</radialGradient> 	</defs> 	     <circle id="_580256B1-7BD8-4320-999E-BA5A9FB954CFbg_frame" cx="14" cy="14" r="14" stroke="#000000" fill="url(#_580256B1-7BD8-4320-999E-BA5A9FB954CFbackground) white" stroke-width="3"/> 	<text font-size="11" id="_580256B1-7BD8-4320-999E-BA5A9FB954CFtext_name" x="14" y="30" oryx:align="top center" stroke="black" stroke-width="0pt" letter-spacing="-0.01px" fill="#000000" text-anchor="middle" transform="rotate(0 14 30)" visibility="inherit" oryx:fontSize="11"/>   </g></g><g class="children" style="overflow:hidden"/><g class="edge"/></g><g class="controls"><g class="dockers"/><g class="magnets" transform="translate(630, 166)"><g pointer-events="all" display="none" transform="translate(6, 6)"><circle cx="8" cy="8" r="4" stroke="none" fill="red" fill-opacity="0.3"/></g></g></g></g></g><g class="edge"><g id="_97C424AD-8F6F-4F26-960D-2CAD51851AE5" bpmn2nodeid="_CEBA113C-C1B8-4785-B234-AA6EF1857290"><g class="stencils"><g class="me"><g pointer-events="painted" bpmn2nodeid="_A6264AEB-42AD-4636-89A6-231513F44614"><path id="_97C424AD-8F6F-4F26-960D-2CAD51851AE5_1" d="M150.609375 180L194.15625 180 " stroke="#000000" fill="none" stroke-width="2" stroke-linecap="round" stroke-linejoin="round" marker-start="url(#_97C424AD-8F6F-4F26-960D-2CAD51851AE5start)" marker-end="url(#_97C424AD-8F6F-4F26-960D-2CAD51851AE5end)"/></g><text id="_97C424AD-8F6F-4F26-960D-2CAD51851AE5text_name" font-size="12" x="164.609375" y="166" oryx:edgePosition="startTop" stroke-width="0pt" letter-spacing="-0.01px" fill="#000000" text-anchor="start" transform="rotate(360 150.609375 180)" visibility="inherit" oryx:fontSize="12"/></g><g class="children" style="overflow:hidden"/><g class="edge"/></g><g class="controls"><g class="dockers"/><g class="magnets"/></g></g><g id="_FE8FF1A8-F718-4F2B-AADB-E4FB4EE3EE59" bpmn2nodeid="_EE495E3D-69B4-4066-A75E-2F2C148D4576"><g class="stencils"><g class="me"><g pointer-events="painted" bpmn2nodeid="_395384C5-6CC9-4188-8A1D-6E86EBE456E0"><path id="_FE8FF1A8-F718-4F2B-AADB-E4FB4EE3EE59_1" d="M295.84375 180L339.15625 180 " stroke="#000000" fill="none" stroke-width="2" stroke-linecap="round" stroke-linejoin="round" marker-start="url(#_FE8FF1A8-F718-4F2B-AADB-E4FB4EE3EE59start)" marker-end="url(#_FE8FF1A8-F718-4F2B-AADB-E4FB4EE3EE59end)"/></g><text id="_FE8FF1A8-F718-4F2B-AADB-E4FB4EE3EE59text_name" font-size="12" x="309.84375" y="166" oryx:edgePosition="startTop" stroke-width="0pt" letter-spacing="-0.01px" fill="#000000" text-anchor="start" transform="rotate(360 295.84375 180)" visibility="inherit" oryx:fontSize="12"/></g><g class="children" style="overflow:hidden"/><g class="edge"/></g><g class="controls"><g class="dockers"/><g class="magnets"/></g></g><g id="_8818BD86-91F4-4498-8A49-1987D74D9B76" bpmn2nodeid="_A05B70E8-F510-465B-812E-1BC094FB6C5F"><g class="stencils"><g class="me"><g pointer-events="painted" bpmn2nodeid="_1E60061E-66CD-440A-B1CE-7892CC33783D"><path id="_8818BD86-91F4-4498-8A49-1987D74D9B76_1" d="M440.84375 180L484.15625 180 " stroke="#000000" fill="none" stroke-width="2" stroke-linecap="round" stroke-linejoin="round" marker-start="url(#_8818BD86-91F4-4498-8A49-1987D74D9B76start)" marker-end="url(#_8818BD86-91F4-4498-8A49-1987D74D9B76end)"/></g><text id="_8818BD86-91F4-4498-8A49-1987D74D9B76text_name" font-size="12" x="454.84375" y="166" oryx:edgePosition="startTop" stroke-width="0pt" letter-spacing="-0.01px" fill="#000000" text-anchor="start" transform="rotate(360 440.84375 180)" visibility="inherit" oryx:fontSize="12"/></g><g class="children" style="overflow:hidden"/><g class="edge"/></g><g class="controls"><g class="dockers"/><g class="magnets"/></g></g><g id="_135A0016-DA43-4FED-BE9D-9A3674A843A6" bpmn2nodeid="_4F58AF7A-9CFA-4D3F-9532-28675FE2FB3E"><g class="stencils"><g class="me"><g pointer-events="painted" bpmn2nodeid="_70F8EA0A-99FF-4B06-B9BE-1842EB28E8A1"><path id="_135A0016-DA43-4FED-BE9D-9A3674A843A6_1" d="M585.390625 180L629.375 180 " stroke="#000000" fill="none" stroke-width="2" stroke-linecap="round" stroke-linejoin="round" marker-start="url(#_135A0016-DA43-4FED-BE9D-9A3674A843A6start)" marker-end="url(#_135A0016-DA43-4FED-BE9D-9A3674A843A6end)"/></g><text id="_135A0016-DA43-4FED-BE9D-9A3674A843A6text_name" font-size="12" x="599.390625" y="166" oryx:edgePosition="startTop" stroke-width="0pt" letter-spacing="-0.01px" fill="#000000" text-anchor="start" transform="rotate(360 585.390625 180)" visibility="inherit" oryx:fontSize="12"/></g><g class="children" style="overflow:hidden"/><g class="edge"/></g><g class="controls"><g class="dockers"/><g class="magnets"/></g></g></g><text id="_798288D4-E161-4425-A201-74D825162CCE" style="stroke-width:1;fill:rgb(177,194,214);font-family:arial;font-weight:bold" font-size="12" onclick="ORYX.Plugins.CanvasTitle.openTextualAnalysis()" onmouseover="ORYX.Plugins.CanvasTitle.addToolTip('_798288D4-E161-4425-A201-74D825162CCE')" transform="translate(10, 20)">process1 v.1.0 (taskproject.process1)</text></g></g></svg>